<svg width="36" height="30" viewBox="0 0 36 30" fill="none" xmlns="http://www.w3.org/2000/svg">
<g clip-path="url(#clip0_22_217)">
<mask id="mask0_22_217" style="mask-type:luminance" maskUnits="userSpaceOnUse" x="0" y="0" width="36" height="29">
<path fill-rule="evenodd" clip-rule="evenodd" d="M0.56543 0.55072H35.0318V28.7594H0.56543V0.55072Z" fill="white"/>
</mask>
<g mask="url(#mask0_22_217)">
<path fill-rule="evenodd" clip-rule="evenodd" d="M5.72348 19.0016L4.243 20.4829C3.83459 20.8939 3.83227 21.5533 4.23836 21.9573C4.64444 22.3637 5.30347 22.3613 5.71187 21.955L7.19235 20.4736C7.60076 20.065 7.60308 19.4032 7.19699 18.9969C6.7909 18.5906 6.13188 18.5929 5.72348 19.0016ZM4.75112 13.0853C4.75112 12.5118 4.28238 12.0474 3.70458 12.0474H1.61381C1.03368 12.0474 0.564941 12.5118 0.564941 13.0853C0.564941 13.6612 1.03368 14.1255 1.61381 14.1255H3.70458C4.28238 14.1255 4.75112 13.6612 4.75112 13.0853ZM13.105 5.78761C9.07434 5.78761 5.8094 9.05684 5.8094 13.0853C5.8094 15.4351 6.93716 17.5016 8.65897 18.8366C9.07666 18.4442 9.56628 18.1424 10.0884 17.8893C10.0443 17.6711 10.0373 17.4412 10.0188 17.2136C8.74715 16.2663 7.88856 14.7966 7.88856 13.0853C7.88856 10.2039 10.2207 7.86571 13.105 7.86571C15.4302 7.86571 17.3771 9.40048 18.05 11.5041C18.4979 11.7038 18.9086 11.9638 19.2845 12.268C19.5235 11.8663 19.795 11.4902 20.106 11.1465C19.252 8.06539 16.4582 5.78761 13.105 5.78761ZM21.9644 4.22038C21.5584 3.81404 20.897 3.81637 20.4886 4.22734L19.0104 5.70871C18.602 6.11504 18.5997 6.77446 19.0058 7.18079C19.4096 7.58712 20.0732 7.5848 20.4793 7.17615L21.9598 5.6971C22.3682 5.28845 22.3705 4.62671 21.9644 4.22038ZM5.72348 7.17148C6.13188 7.58013 6.7909 7.58246 7.19699 7.17612C7.60308 6.77211 7.60076 6.10805 7.19235 5.70172L5.71187 4.22035C5.30347 3.8117 4.64444 3.80938 4.23836 4.21571C3.83227 4.62204 3.83459 5.28146 4.243 5.69243L5.72348 7.17148ZM13.1048 4.73581C13.6779 4.73581 14.142 4.26679 14.142 3.68864V1.59661C14.142 1.01614 13.6779 0.549438 13.1048 0.549438C12.5316 0.549438 12.0629 1.01614 12.0629 1.59661V3.68864C12.0629 4.26679 12.5316 4.73581 13.1048 4.73581Z" fill="#F8E71C"/>
</g>
<mask id="mask1_22_217" style="mask-type:luminance" maskUnits="userSpaceOnUse" x="0" y="0" width="36" height="29">
<path fill-rule="evenodd" clip-rule="evenodd" d="M0.56543 0.55072H35.0318V28.7594H0.56543" fill="white"/>
</mask>
<g mask="url(#mask1_22_217)">
<path fill-rule="evenodd" clip-rule="evenodd" d="M35.0329 23.0129C35.0329 26.1869 32.4617 28.7595 29.2873 28.7595C29.1086 28.7595 28.9415 28.7224 28.7675 28.7061V28.7595H14.1484C11.264 28.7595 8.92725 26.4214 8.92725 23.5353C8.92725 21.3574 10.2592 19.4929 12.1527 18.7081C12.0924 18.4109 12.0599 18.1044 12.0599 17.7886C12.0599 15.1927 14.1623 13.0868 16.7589 13.0868C17.9795 13.0868 19.0817 13.5651 19.9171 14.329C20.8314 12.3647 22.8038 10.9971 25.1127 10.9971C28.2848 10.9971 30.856 13.572 30.856 16.7438C30.856 16.9968 30.8142 17.2406 30.7794 17.4868C33.2252 18.1462 35.0329 20.3589 35.0329 23.0129Z" fill="#E4F2FC"/>
</g>
</g>
<defs>
<clipPath id="clip0_22_217">
<rect width="34.5355" height="28.553" fill="white" transform="translate(0.56543 0.477539)"/>
</clipPath>
</defs>
</svg>
