<svg width="513" height="17" viewBox="0 0 513 17" fill="none" xmlns="http://www.w3.org/2000/svg">
<mask id="mask0_302_2324" style="mask-type:alpha" maskUnits="userSpaceOnUse" x="0" y="0" width="513" height="17">
<rect x="0.737549" y="0.242188" width="512.097" height="15.9615" fill="#C4C4C4"/>
</mask>
<g mask="url(#mask0_302_2324)">
<path d="M77.6563 -3.135L78.9078 -3.3454L76.4723 -3.64704L77.6398 -3.86784C78.8106 -3.86582 80.3274 -3.53497 81.1528 -3.71077C81.2536 -3.88097 79.9788 -3.9356 79.6535 -4.07121C79.3657 -4.2102 79.1308 -4.34829 78.9515 -4.48383C79.5891 -4.48236 80.2901 -4.44958 81.0128 -4.38741C81.9849 -4.28585 82.9383 -4.23649 83.7679 -4.24475C85.4645 -4.21733 87.1035 -4.24469 88.948 -4.23866L88.3343 -4.64829L90.7115 -4.55246C90.9634 -4.52125 91.2637 -4.57144 91.5113 -4.53283C93.5714 -4.20619 94.4432 -4.38419 95.4321 -4.53178C95.6349 -4.56996 95.8792 -4.59848 96.1585 -4.61657C98.9067 -4.53832 101.385 -4.08047 103.86 -3.84542C104.326 -3.78541 104.772 -3.70838 105.169 -3.61979C106.029 -3.44757 106.987 -3.30696 107.954 -3.21082C108.92 -3.11469 109.865 -3.0661 110.702 -3.06949C112.552 -3.0733 114.643 -2.95938 116.771 -2.73878C117.404 -2.66611 118.038 -2.61818 118.631 -2.59803C119.225 -2.57787 119.765 -2.58594 120.218 -2.62172L121.657 -2.38789C122.281 -2.48277 123.072 -2.53483 123.982 -2.5409C124.892 -2.54697 125.902 -2.50693 126.952 -2.42322C128.07 -2.33239 129.205 -2.27117 130.365 -2.17515C132.762 -1.99158 135.094 -1.87931 137.29 -1.84184C140.559 -1.73078 143.754 -1.64492 147.052 -1.50646C149.116 -1.43963 151.127 -1.40287 153.072 -1.39638C155.403 -1.37024 157.924 -1.24369 160.513 -1.02284C160.391 -0.815638 159.255 -0.87685 158.493 -0.883864C156.034 -0.918304 153.518 -1.00755 150.988 -1.07459C149.849 -1.10076 148.741 -1.11067 147.67 -1.10425C145.881 -1.11284 143.995 -1.16805 142.043 -1.26894C138.961 -1.37995 135.978 -1.43331 133.123 -1.42848C132.899 -1.42027 132.694 -1.40573 132.511 -1.38509C132.473 -1.36722 132.466 -1.34468 132.49 -1.31964C132.513 -1.2946 132.568 -1.26789 132.647 -1.24207C132.727 -1.21626 132.829 -1.19221 132.945 -1.17221C133.06 -1.15221 133.184 -1.13694 133.306 -1.12786C134.439 -0.987438 135.657 -0.836619 136.726 -0.815402C136.768 -0.813817 136.812 -0.810196 136.855 -0.804799C136.899 -0.799403 136.941 -0.792366 136.978 -0.784198C139.372 -0.48775 141.34 -0.537916 143.204 -0.489685C146.3 -0.359332 149.284 -0.298444 152.112 -0.307942C152.539 -0.307297 153 -0.29035 153.479 -0.257719C156.44 -0.12544 159.21 -0.110644 161.657 -0.214004C162.664 -0.240189 163.6 -0.298972 164.683 -0.299957C165.349 -0.304002 165.929 -0.341513 166.389 -0.410248C166.848 -0.478982 167.176 -0.577518 167.354 -0.699927C167.81 -0.63548 168.274 -0.578044 168.739 -0.528306C169.017 -0.499866 169.284 -0.492312 169.485 -0.507194C169.686 -0.522076 169.807 -0.558282 169.824 -0.608486C169.907 -0.74909 169.273 -0.8197 168.722 -0.879912C169.054 -0.910066 169.428 -0.927806 169.835 -0.932702C172.129 -0.964829 174.588 -0.92691 177.161 -0.819777C179.158 -0.691542 180.753 -0.795917 182.854 -0.615079C183.106 -0.583874 183.313 -0.629674 183.545 -0.640671C184.15 -0.698584 184.903 -0.711599 185.74 -0.678583C186.576 -0.645566 187.471 -0.567513 188.346 -0.451191C189.436 -0.768985 191.79 -0.405933 193.529 -0.373305C194.064 -0.211692 193.45 -0.240102 193.423 -0.195701C193.397 -0.1513 193.423 -0.19571 193.213 -0.221714C191.477 0.00715836 189.099 0.0570664 186.413 -0.0790089C185.916 -0.0784448 185.442 -0.0680166 184.997 -0.0478299C184.322 -0.0192562 183.562 -0.0221081 182.748 -0.0562651C181.859 -0.0813508 181.043 -0.0694346 180.338 -0.0210982C179.933 -0.0218864 179.59 0.00232919 179.342 0.0493169C179.093 0.0963049 178.947 0.164542 178.917 0.247689C179.188 0.311787 179.488 0.370436 179.806 0.421312C181.466 0.622184 183.121 0.705329 184.446 0.654389C186.751 0.56662 189.495 0.652271 191.947 0.622306C193.604 0.610168 195.368 0.644744 197.205 0.725387C197.205 0.725387 197.156 0.806789 197.152 0.814189C197.369 0.849434 197.597 0.877711 197.824 0.897404C197.824 0.897404 197.824 0.897404 197.846 0.860403C197.745 0.824871 197.609 0.791444 197.452 0.763992L196.906 0.69638C197.277 0.678783 197.624 0.626397 198.011 0.658404C198.825 0.71787 199.604 0.742973 200.3 0.732227C200.996 0.721478 201.594 0.675092 202.059 0.595857C202.884 0.494307 203.909 0.448125 205.069 0.460295C205.958 0.449208 206.815 0.42538 207.636 0.38893C207.636 0.38893 207.689 0.300136 208.077 0.25294C207.709 0.194729 207.325 0.147197 206.943 0.112522C205.282 0.0258929 203.616 -0.0533364 201.983 -0.112564C201.382 -0.118962 200.817 -0.109037 200.298 -0.082986C198.862 -0.0525012 197.248 -0.0957674 195.55 -0.210268C195.55 -0.210268 195.215 -0.251871 195.047 -0.272676C195.523 -0.467874 197.165 -0.272456 197.829 -0.404651C198.233 -0.402245 198.945 -0.385622 198.92 -0.420424C198.865 -0.466863 198.858 -0.510007 198.901 -0.546756C198.944 -0.583507 199.035 -0.612955 199.167 -0.632989C199.3 -0.653021 199.47 -0.663149 199.667 -0.662634C199.864 -0.662121 200.083 -0.650974 200.307 -0.630009C202.176 -0.516598 203.936 -0.48506 205.48 -0.537326C206.066 -0.536316 206.722 -0.502703 207.303 -0.494294C207.659 -0.484165 207.983 -0.489798 208.259 -0.510884C209.663 -0.666165 211.552 -0.677504 213.642 -0.5432C214.653 -0.494913 215.597 -0.488458 216.426 -0.524158C217.015 -0.53055 217.265 -0.420148 217.685 -0.36814L219.468 -0.258506L217.178 -0.121132C217.668 0.193688 218.057 0.297494 218.857 0.317108C220.024 0.346725 221.16 0.360106 222.259 0.357166C223.072 0.35458 223.743 0.28678 224.843 0.407202C225.038 0.426843 225.225 0.4332 225.374 0.425207C226.662 0.318299 228.214 0.293763 229.924 0.353275C230.809 0.153081 232.316 0.347721 233.711 0.504549C234.161 0.35375 233.345 0.284528 232.859 0.192517C234.025 0.201935 235.2 0.196557 236.404 0.218577C236.766 0.21056 237.18 0.224273 237.614 0.258635C238.047 0.292996 238.487 0.347066 238.901 0.416616C239.103 0.461556 239.346 0.495379 239.58 0.511061C239.814 0.526742 240.021 0.523085 240.158 0.500843C240.783 0.435251 241.784 0.495665 242.3 0.384868C242.484 0.359388 242.747 0.355831 243.041 0.374818C243.335 0.393806 243.642 0.434113 243.907 0.488509C243.617 0.505482 243.359 0.532209 243.139 0.5681C242.348 0.684691 242.638 0.879505 243.643 1.16273C245.184 1.14715 246.759 1.15158 248.188 1.0982C248.985 1.05028 249.961 1.06526 251.006 1.14145C252.052 1.21765 253.126 1.35204 254.108 1.5295C254.463 1.59775 254.868 1.64501 255.242 1.66191C255.616 1.67882 255.932 1.66412 256.127 1.62073C256.248 1.57056 256.286 1.50705 256.237 1.43573L255.229 1.31091C255.229 1.31091 255.268 1.24431 255.277 1.22951L256.726 1.21832C257.493 1.21793 258.292 1.23755 259.017 1.23196C260.081 1.19479 261.296 1.21551 262.587 1.29283C263.777 1.37211 264.947 1.43204 266.087 1.47208C267.189 1.5133 267.988 1.3819 269.037 1.36092C269.83 1.3451 270.703 1.362 271.622 1.41097C273.209 1.49781 274.665 1.49797 275.859 1.41143C277.25 1.87767 277.926 1.95348 279.218 1.82749L279.825 1.79151L279.991 1.89151L280.455 1.86951C281.323 1.84993 282.191 1.83035 283.097 1.82336C284.356 1.86664 285.716 1.98304 287.043 2.16123C287.295 2.19243 287.638 2.29845 287.859 2.38146C288.081 2.46447 288.563 2.71488 288.917 2.87789C288.531 2.99689 288.103 3.11068 287.797 3.24748C287.766 3.27085 287.769 3.29872 287.806 3.32885C287.842 3.35897 287.911 3.39052 288.007 3.42094C288.103 3.45137 288.223 3.47982 288.358 3.50403C288.493 3.52823 288.639 3.54751 288.783 3.56031C289.066 3.5879 289.344 3.60629 289.608 3.61473C290.905 3.62928 292.148 3.61846 293.323 3.58239C293.752 3.53149 294.34 3.52665 294.992 3.56866C295.645 3.61066 296.326 3.69709 296.927 3.81424C298.464 3.74391 300.251 3.76469 302.164 3.87514C304.187 3.80796 306.631 3.9438 308.521 3.79662C308.477 3.87063 308.672 3.99804 308.944 4.07145C309.374 4.18294 309.862 4.28628 310.386 4.37707L314.383 4.55434C314.532 4.64549 314.719 4.73777 314.94 4.82996C315.092 4.90279 315.357 4.97405 315.678 5.02864C315.999 5.08323 316.351 5.11687 316.66 5.12241C317.456 5.14942 318.122 5.08902 319.071 5.23824C317.61 5.3793 315.641 5.36056 313.513 5.18536C311.514 5.05212 309.591 4.98552 307.815 4.98806C307.23 4.98705 306.459 4.99483 306.276 5.07543C305.87 5.30323 304.81 5.26722 303.573 5.2252C302.601 5.1792 301.713 5.18436 300.983 5.24026C300.252 5.29616 299.7 5.4012 299.371 5.54674C299.287 5.68735 299.487 5.80736 300.34 5.88917L303.886 6.21725C304.409 6.17507 304.905 6.12514 305.372 6.06767C306.159 5.99133 307.131 5.97038 308.212 6.00644C309.293 6.0425 310.454 6.1346 311.605 6.27557C312.193 6.34839 312.78 6.42119 313.207 6.3866C313.581 6.34686 313.925 6.29928 314.237 6.2442C314.301 6.2073 314.326 6.16482 314.312 6.1184C314.538 6.13999 314.765 6.16805 314.984 6.20162C316.735 6.59326 318.091 6.58648 319.323 6.48489C319.657 6.4547 319.911 6.4067 320.249 6.3691C320.586 6.33151 320.705 6.28271 321.013 6.29692C323.461 6.42536 324.166 5.99635 326.229 6.01358C326.329 5.99683 326.392 5.97177 326.41 5.94073C326.429 5.9097 326.402 5.87368 326.334 5.83598C326.188 5.80195 326.02 5.77268 325.844 5.75086C325.667 5.72905 325.49 5.7154 325.326 5.71116C324.377 5.65611 323.538 5.67299 322.954 5.75892C322.54 5.79403 322.102 5.82201 321.642 5.8427L319.576 5.22144C321.578 5.27839 323.471 5.27802 325.211 5.22033C325.591 5.18793 326.234 5.24375 326.769 5.25436L330.701 5.31243C331.509 5.31724 332.198 5.21985 333.326 5.44687C333.326 5.44687 334.07 5.48348 334.269 5.45248C334.468 5.42149 335.348 5.22869 335.873 5.10309C336.483 5.1389 337.327 5.23553 337.707 5.20313C338.371 5.12356 338.945 5.02156 339.42 4.89894L341.795 5.07398C341.793 5.22947 341.706 5.37575 341.537 5.5106C341.351 5.64064 341.358 5.79674 341.555 5.96614C341.752 6.13554 342.135 6.31342 342.672 6.48525L345.017 7.39533C345.4 7.45628 345.808 7.49729 346.186 7.51283C346.564 7.52837 346.893 7.51766 347.129 7.48216C348.138 7.37677 349.269 7.29438 350.278 7.18899C351.58 7.35022 351.245 7.61063 352.192 7.83905L355.257 8.2187C355.725 8.57053 356.201 8.90754 354.779 9.02533C354.496 9.04592 354.687 9.18074 354.429 9.23614C355.534 9.50016 356.75 9.57919 357.87 9.74182C358.312 9.85877 358.681 9.98257 358.961 10.1072C359.267 10.2949 359.889 10.4867 360.692 10.6411C361.494 10.7954 362.413 10.9001 363.249 10.9323C364.653 11.0312 366.091 11.1796 367.497 11.371C367.977 11.4376 368.471 11.4861 368.945 11.5132C369.419 11.5404 369.861 11.5456 370.243 11.5285C371.604 11.4983 372.756 11.3947 373.624 11.2243C374.482 11.0797 375.639 11.01 376.989 11.0215C379.299 11.3076 379.765 11.7386 381.162 12.1183L378.748 12.1608C378.661 12.3088 378.82 12.4954 377.831 12.492C376.841 12.4886 377.343 12.6302 377.664 12.7732C377.777 12.8452 377.998 12.9192 378.289 12.9827C378.58 13.0462 378.923 13.0954 379.26 13.1219L381.316 13.3049C382.044 13.3746 382.75 13.4043 383.354 13.3909C383.958 13.3774 384.438 13.3213 384.741 13.2288C385.089 13.1408 385.569 13.0814 386.152 13.054C386.895 12.9822 387.506 12.8756 387.962 12.738L390.863 12.9384C390.987 12.8002 391.385 12.7032 391.992 12.664C392.598 12.6248 393.375 12.6456 394.191 12.7231L396.147 12.8461C398.321 12.9804 398.798 12.9362 399.434 12.5464L396.827 11.8501C397.206 11.6667 397.572 11.5055 397.938 11.3443C397.288 11.1149 396.422 10.8979 395.426 10.7154C394.497 10.5193 393.541 10.3294 392.563 10.1464C391.502 9.95935 390.381 9.79672 389.064 9.58589C388.834 9.51769 388.5 9.39687 388.073 9.28046C387.646 9.16733 387.2 9.05645 386.737 8.94823C386.825 8.80022 386.904 8.66702 386.735 8.49521C387.547 8.55003 388.385 8.64591 389.174 8.77421C389.964 8.90251 390.68 9.05918 391.258 9.23011C391.355 9.26043 391.474 9.2889 391.607 9.31361C391.74 9.33831 391.884 9.35869 392.03 9.37333C393.455 9.47836 394.136 9.69777 394.833 9.96679C395.302 10.1043 395.907 10.2264 396.564 10.3162C397.824 10.4722 399.057 10.6727 400.262 10.8457C400.631 10.9034 401.014 10.9508 401.396 10.9861C402.655 11.0984 403.922 11.2553 405.133 11.449C405.528 11.4982 405.907 11.5634 406.239 11.639C406.571 11.7146 406.845 11.7985 407.039 11.8836C406.739 11.9769 406.577 12.0947 406.563 12.2298C406.511 12.3186 407.395 12.4997 407.813 12.6309C408.231 12.7621 407.411 12.7003 407.133 12.7135C405.991 12.7389 405.779 12.7921 406.463 13.0833C406.692 13.1748 406.843 13.2665 406.909 13.3525C406.974 13.4384 406.952 13.5169 406.843 13.5831C406.681 13.8569 406.187 14.0817 405.848 14.3495C406.375 14.5259 407.254 14.7144 407.35 14.9328C407.396 14.9812 407.494 15.0325 407.635 15.0831C407.777 15.1336 407.959 15.182 408.169 15.2248C408.722 15.3172 409.224 15.4278 409.638 15.5478C410.051 15.6679 410.364 15.7943 410.553 15.9173C410.615 15.9681 410.764 16.022 410.971 16.0683C411.177 16.1145 411.426 16.1496 411.668 16.1665C411.956 16.1873 412.214 16.1845 412.389 16.1588C412.563 16.1332 412.641 16.0865 412.606 16.0285C412.613 15.9195 412.575 15.8059 412.492 15.6887C412.54 15.6073 412.588 15.5259 412.398 15.3911C413.258 15.4403 414.162 15.5389 415.01 15.6761C415.859 15.8134 416.619 15.9842 417.21 16.1698C417.862 16.3618 418.464 16.5634 419.187 16.788C419.038 17.0396 419.038 17.0396 420.577 17.4845L428.743 17.7014L430.416 17.996C431.977 18.2529 432.348 18.2353 433.328 18.1025L433.988 17.9777C435.373 18.1493 436.969 18.347 437.836 18.0254C438.117 18.235 438.301 18.3054 438.237 18.3372C437.823 18.6465 437.105 18.909 436.109 19.1142C435.855 19.1622 435.676 19.2354 435.381 19.2782C434.427 19.5197 434.206 19.893 434.762 20.3216C435.039 20.5113 435.44 20.7055 435.953 20.898C435.202 21.1652 434.206 21.3866 432.994 21.5562C431.965 21.6874 431.117 21.8632 430.476 22.0784C429.9 22.2954 429.037 22.4585 427.937 22.5584C427.38 22.6008 426.973 22.6846 426.757 22.8014C426.693 23.1174 426.84 23.4558 427.196 23.809C427.263 23.9165 427.454 24.0326 427.753 24.1482C428.052 24.2637 428.451 24.3757 428.92 24.4752C428.92 24.4752 429.146 24.5509 429.254 24.5961C429.344 24.9788 429.006 25.3161 428.262 25.5853C428.14 25.6617 427.891 25.7168 427.541 25.7448C427.19 25.7729 426.753 25.7727 426.275 25.7443C425.265 25.6987 424.322 25.693 423.345 25.6674C422.293 25.6312 421.366 25.6597 420.662 25.7501C419.958 25.8404 419.503 25.9892 419.345 26.1808C419.335 26.235 419.304 26.2869 419.253 26.3362C419.223 26.3616 419.207 26.3888 419.205 26.4176L421.447 27.0448L418.91 27.2946C418.761 27.5462 419.979 27.697 420.589 27.8839L420.212 27.988C419.726 28.047 419.072 27.9342 418.48 27.8688L417.892 27.796L417.822 27.9144C417.456 28.0756 416.121 27.8944 415.6 28.0126C415.079 28.1308 415.451 28.2642 416.231 28.3926C416.774 28.4881 417.356 28.5642 417.935 28.6152C418.514 28.6662 419.073 28.6909 419.572 28.6873C419.87 28.6746 420.117 28.6458 420.299 28.6025C421.352 28.4181 422.515 28.2596 423.78 28.1281C424.75 28.01 425.964 27.9598 427.338 27.981C427.741 27.9721 428.227 28 428.711 28.0599C429.195 28.1199 429.645 28.2079 429.984 28.3086L430.695 28.3252C430.695 28.3252 431.084 28.429 431.029 28.446C430.758 28.7536 431.073 29.1296 431.926 29.5183L431.184 29.5535C430.124 29.5175 430.796 29.7517 430.638 29.8671C429.884 29.8453 428.905 29.7478 428.548 29.8942L428.013 29.8836L428.223 29.9096L428.477 29.8617L429.474 30.0805C429.002 30.1173 428.66 30.1623 428.242 30.1821C428.012 30.1993 427.828 30.2297 427.703 30.2715C427.577 30.3133 427.512 30.3656 427.512 30.4253C427.513 30.5171 427.389 30.5943 427.151 30.6497C426.913 30.705 426.569 30.7366 426.153 30.7414C425.656 30.7434 425.371 30.8432 425.08 30.8786L426.346 31.4803C426.346 31.4803 425.716 31.4023 426.059 31.5083L426.103 31.4343L426.87 31.5849C427.423 31.7169 427.809 31.7489 428.136 31.6543C428.462 31.5597 428.388 31.6855 428.545 31.6493C428.488 31.7455 428.132 31.8127 427.828 31.8703C427.476 31.9155 427.078 31.9489 426.642 31.9697C427.428 32.3927 427.466 32.4053 426.317 32.5173C425.169 32.6293 425.565 32.7975 424.605 32.8215C423.644 32.8455 424.736 33.1317 425.379 33.1875C425.856 33.2242 426.342 33.2814 426.804 33.3551C427.266 33.4287 427.693 33.5172 428.056 33.6144L427.863 33.94C427.58 33.913 427.297 33.878 427.023 33.836C426.093 33.6571 425.246 33.4887 424.418 33.5927L424.812 33.8401L421.922 33.6967C421.997 33.8821 422.438 34.0933 423.151 34.2857C423.043 34.3914 422.977 34.5027 422.953 34.6187C422.905 34.7001 422.62 34.6489 422.434 34.6577C421.773 34.6713 421.23 34.7265 420.853 34.8184C420.476 34.9102 420.277 35.0359 420.274 35.1845C420.2 35.3103 421.217 35.5714 421.853 35.5628C423.441 35.5879 425.159 35.6846 426.913 35.8479C427.982 35.8691 428.133 35.5383 429.892 35.7641C429.927 35.9168 429.702 36.0405 429.25 36.1164C428.799 36.1923 428.145 36.2164 427.389 36.1849C427.819 36.5241 430.201 36.6125 430.306 36.9671C429.713 36.9421 429.079 36.8832 428.466 36.7962C427.854 36.7091 427.284 36.5971 426.814 36.4711C426.712 36.44 426.585 36.4114 426.443 36.3878C426.302 36.3643 426.15 36.3465 426.004 36.3363C425.857 36.326 425.719 36.3236 425.604 36.3292C425.488 36.3347 425.398 36.3482 425.342 36.3682C425.672 36.4964 426.035 36.6447 426.449 36.7833C426.862 36.9219 426.962 36.9819 427.26 37.0109C429.486 37.2865 430.544 37.783 432.469 38.1088C432.973 38.1712 433.036 38.3696 432.598 38.3472C432.182 38.3248 431.805 38.3277 431.51 38.3557C431.215 38.3837 431.013 38.4356 430.927 38.5056C430.604 38.5873 430.202 38.6523 429.731 38.699C431.705 39.2084 434.06 39.6586 436.573 40.0071C437.049 40.076 437.545 40.118 437.989 40.127C439.392 40.1275 440.881 40.1679 442.425 40.2474C442.973 40.2691 443.479 40.2671 443.916 40.2415C445.35 40.1807 446.488 40.3137 447.528 40.6887L449.249 41.2832C449.192 41.3794 448.903 41.4866 448.68 41.6338L450.025 41.9512L460.284 41.2202L462.344 41.928L465.297 41.8887C465.523 41.9091 465.751 41.9373 465.969 41.9719C466.566 42.1809 467.033 42.3817 467.681 42.5811C468.329 42.7805 469.487 42.8048 470.294 43.0398C471.101 43.2748 471.91 43.2796 472.909 43.4192C473.003 43.6011 472.906 43.7649 472.624 43.9002C472.532 44.0556 472.024 44.1516 471.936 44.2996C471.946 44.4492 471.757 44.5762 471.387 44.6691C471.018 44.762 470.478 44.8179 469.818 44.8316C467.97 45.1501 465.741 45.3769 463.199 45.5052C462.975 45.5145 462.79 45.536 462.655 45.5684C462.519 45.6008 462.436 45.6434 462.411 45.6936C462.414 45.8387 462.245 45.9642 461.915 46.0607C461.585 46.1573 461.102 46.2225 460.503 46.2515C460.343 46.2574 460.222 46.2756 460.156 46.304C459.929 46.3222 459.763 46.3572 459.675 46.4055C459.587 46.4538 459.58 46.5139 459.654 46.5798C459.729 46.6456 459.882 46.7152 460.099 46.7817C460.316 46.8482 460.59 46.9094 460.895 46.9594C461.336 47.0399 461.787 47.1169 462.245 47.1902C462.219 47.2346 461.764 47.2418 461.83 47.2818C462.01 47.4095 462.051 47.5291 461.952 47.6312C461.852 47.7333 461.614 47.8151 461.256 47.87L463.708 48.9045C465.196 49.0478 466.656 49.2908 467.811 49.5874C467.812 49.636 467.746 49.6767 467.618 49.7055C467.49 49.7343 467.306 49.7501 467.083 49.7514C466.484 49.7726 465.919 49.8138 465.274 49.8372C464.88 49.8546 464.552 49.8931 464.309 49.9503C464.066 50.0075 463.913 50.0823 463.859 50.1703L465.299 50.5552C464.838 50.649 464.496 50.694 464.191 50.7516C464.364 50.8725 464.661 50.9976 465.059 51.1171C465.457 51.2367 465.945 51.3475 466.487 51.441C466.632 51.4603 466.78 51.4744 466.923 51.4825C467.065 51.4905 467.199 51.4924 467.316 51.488C468.43 51.3561 469.735 51.5891 471.001 51.8095C472.268 52.0299 472.956 52.1628 473.891 52.3342L475.68 52.3572C476.133 52.4384 476.537 52.5338 476.86 52.6359C477.183 52.738 477.416 52.8438 477.54 52.9451C477.444 53.1079 476.595 53.0186 476.089 53.0354C474.89 53.1368 473.312 53.1151 471.618 52.9742C471.198 52.9222 470.768 52.9642 470.359 52.9691C469.478 52.9894 468.631 53.0224 467.822 53.0679C467.289 53.1103 466.791 53.1627 466.331 53.2249C466.209 53.4321 468.142 53.5921 467.045 53.6945C467.423 53.7413 467.564 53.8065 467.758 53.7829C469.003 53.9175 470.23 53.984 471.296 53.9748C473.341 53.9462 475.664 54.0406 478.074 54.2503C480.675 54.4675 483.17 54.5588 485.353 54.5164C486.185 54.514 487.115 54.5584 488.071 54.6465C489.201 54.7684 490.322 54.8451 491.363 54.8715C491.708 54.8725 492.092 54.8932 492.484 54.9321C492.876 54.971 493.265 55.027 493.62 55.0954C493.589 55.1472 493.251 55.1848 493.326 55.21C494.404 55.5976 494.841 56.0012 496.499 56.3973C497.633 56.5377 498.935 56.6989 499.676 56.5127C500.417 56.3265 500.152 56.1665 498.676 55.6899C498.996 55.683 499.382 55.7053 499.766 55.7528C500.15 55.8003 500.507 55.8701 500.776 55.9499L502.052 56.3066L503.202 56.6476C503.101 56.8178 503.022 56.951 502.939 57.0916C502.807 57.241 502.952 57.4227 503.352 57.6114C503.593 57.7145 503.804 57.8175 503.981 57.9197C504.7 58.3282 504.908 58.7143 504.582 59.0347C503.957 59.4954 503.088 59.9193 501.983 60.3015C500.816 60.6733 500.178 61.1423 499.216 61.5475C498.726 61.732 498.13 61.8974 497.436 62.0419C496.119 62.3633 494.675 62.6691 493.354 62.9979C492.032 63.3267 490.539 63.5628 489.072 63.8338C486.886 64.1554 484.524 64.4332 481.998 64.6656C480.435 64.8691 478.83 65.0675 477.384 65.3015C475.676 65.5653 473.67 65.7547 471.416 65.865C469.424 65.9971 467.645 66.1925 466.112 66.4474C465.952 66.4749 465.825 66.51 465.735 66.5516C465.459 66.8115 464.686 66.9947 463.533 67.0732C463.603 67.1493 463.693 67.2266 463.801 67.305C463.961 67.3983 463.995 67.4857 463.897 67.5557C463.799 67.6258 463.575 67.6752 463.253 67.6978C462.331 67.7622 461.564 67.8715 460.988 68.021C460.776 68.0584 460.645 68.1131 460.605 68.1801C460.565 68.2471 460.618 68.3245 460.76 68.4058C460.885 68.4894 460.894 68.5663 460.786 68.6265C460.678 68.6868 460.458 68.7276 460.154 68.7438C459.373 68.8229 458.538 68.8866 457.652 68.9343C455.767 69.0397 453.576 69.0385 451.209 68.9306C450.957 68.8994 450.703 68.9474 450.409 68.911C448.735 68.7902 447.18 68.7715 445.933 68.8572C444.471 68.8905 442.943 68.8839 441.401 68.8995C439.173 68.889 437.119 68.9526 435.294 69.0884C433.208 68.9572 432.036 69.1853 430.276 69.1897C428.65 69.2132 427.11 69.2694 425.669 69.3579C423.345 69.4752 421.031 69.5778 418.741 69.7152C416.592 69.7807 414.614 69.9058 412.84 70.0885C412.16 70.1711 410.929 70.0425 410.466 70.2155C410.003 70.3885 409.069 70.368 408.313 70.4254L405.93 70.5672C405.521 70.6009 405.07 70.6223 404.586 70.631C402.37 70.6426 400.836 70.8735 398.78 70.9207L398.57 70.8947C394.918 71.2381 390.74 71.4265 386.158 71.4545C383.481 71.5599 380.554 71.5548 377.714 71.632C377.036 71.7864 375.436 71.5962 374.586 71.7372C373.737 71.8782 372.349 71.7857 371.253 71.8089C370.158 71.8321 369.087 71.8901 367.916 71.8881C366.9 71.8887 366.041 71.9517 365.419 72.0712C363.998 72.2688 362.267 72.385 360.302 72.4146C357.702 72.4659 355.244 72.5825 352.6 72.5569C352.638 72.7009 352.476 72.8234 352.13 72.9118C351.785 73.0003 351.268 73.0514 350.634 73.06C347.807 73.115 345.243 73.2582 342.378 73.3005L341.612 73.3009L333.044 73.3836C330.735 73.3995 328.511 73.4259 326.157 73.4441C325.275 73.3349 325.253 73.5229 324.644 73.487C324.473 73.3944 324.272 73.3536 323.972 73.4038L323.906 73.5148L314.128 73.6621C310.299 73.7698 306.272 73.8021 302.081 73.7587C301.086 73.7696 300.158 73.8064 299.311 73.8685C298.526 73.8911 297.707 73.9011 296.859 73.8984C295.713 73.8705 294.593 73.8564 293.504 73.8562C290.639 73.8985 287.633 73.8757 284.496 73.8446C281.359 73.8136 278.982 73.8688 276.19 73.8645C274.299 73.8607 272.417 73.8421 270.46 73.7982C269.526 73.7778 268.374 73.667 267.407 73.6266C266.439 73.5862 266.123 73.5868 265.995 73.6504C265.574 73.8285 264.515 73.7133 263.669 73.6959C262.019 73.6663 261.785 73.6055 261.337 73.1449L263.361 72.9985C263.858 72.9512 264.482 72.9429 265.174 72.9744C265.866 73.0058 266.602 73.0759 267.312 73.178C267.591 73.2217 267.883 73.2562 268.171 73.2796C268.459 73.303 268.737 73.3148 268.989 73.3142C271.032 73.2892 273.047 73.2368 275.01 73.1941L275.297 73.1661L275.315 72.7553C275.055 72.7149 274.786 72.6816 274.517 72.6565L264.669 72.3899C262.409 72.3245 260.062 72.1768 257.844 72.1166C255.626 72.0563 254.431 72.0195 252.71 71.9573C251.984 71.9218 251.243 71.8752 250.494 71.8178C250.537 71.7783 250.562 71.7362 250.568 71.692C250.608 71.6254 250.66 71.5366 250.342 71.4654C249.995 71.3649 249.531 71.279 249.042 71.225C248.583 71.1893 248.139 71.1691 247.725 71.1652C245.728 71.1308 243.447 70.9138 241.368 70.5605L240.642 70.7963C237.52 70.6638 234.352 70.5335 231.091 70.4077C230.438 70.3734 229.753 70.3075 229.087 70.215C228.373 70.1266 227.716 69.942 226.965 69.841C226.222 69.7683 225.485 69.7116 224.766 69.672C224.961 69.6113 225.217 69.5628 225.528 69.528C225.833 69.5158 226.055 69.4779 226.163 69.4198C226.27 69.3616 226.257 69.2864 226.125 69.2048C225.892 69.0648 225.79 68.933 226.296 68.9162C226.763 68.8842 227.097 68.8151 227.259 68.717C227.421 68.6188 227.404 68.4957 227.21 68.3621C227.125 68.2841 227.065 68.2077 227.03 68.1333L226.82 68.1073C226.128 67.8309 224.744 67.7311 223.752 67.5049C223.283 67.4393 222.798 67.4016 222.373 67.3976C221.275 67.349 220.205 67.3278 219.07 67.2666C218.527 67.2384 217.96 67.1871 217.401 67.1155C216.604 67.0167 216.52 67.0063 216.056 66.6471C216.776 66.6534 217.346 66.5997 217.671 66.4952C217.996 66.3907 218.055 66.2417 217.839 66.0735C217.245 65.7061 216.618 65.3187 213.933 65.0576C214.809 65.0448 215.652 65.0192 216.458 64.9811C216.692 64.9728 216.868 64.9459 216.961 64.9037C217.054 64.8615 217.061 64.8062 216.979 64.7452C216.898 64.6841 216.732 64.6202 216.505 64.562C216.278 64.5039 216 64.4542 215.709 64.4196C214.292 64.2118 212.813 64.0727 211.439 64.018C210.282 63.9937 209.237 64.0073 207.885 64.0067L206.289 63.8091C206.316 63.7647 206.081 63.7039 206.141 63.6795C206.546 63.4517 206.994 63.229 207.454 62.9842C206.719 62.8521 206.081 62.6925 205.615 62.5238C205.149 62.3551 204.873 62.1841 204.819 62.0304C204.78 61.984 204.79 61.9417 204.85 61.9066C204.91 61.8714 205.017 61.8443 205.165 61.827C205.585 61.7972 205.91 61.7405 206.113 61.661C206.316 61.5815 206.394 61.4815 206.339 61.3686L205.098 60.9527C201.361 60.656 197.692 60.4441 194.158 60.3207L190.968 60.2275C190.583 60.1163 190.703 60.0675 191.065 60.0647C191.427 60.0619 192.445 60.0927 193.157 60.1093C193.771 60.1311 194.317 60.1168 194.741 60.0677C195.165 60.0186 195.453 59.9365 195.577 59.8291L194.505 59.3549C194.558 59.2661 194.633 59.1403 195.214 59.1487C195.611 59.1384 195.903 59.0937 196.044 59.0218C196.185 58.9499 196.165 58.855 195.989 58.7523C195.963 58.6781 196.003 58.6104 196.108 58.5525C196.967 58.5477 197.822 58.5503 198.602 58.5277C198.965 58.5203 199.271 58.4928 199.501 58.4471C199.73 58.4015 199.876 58.3388 199.93 58.2634C199.958 58.1897 199.89 58.1058 199.73 58.0184C199.571 57.931 199.324 57.8426 199.011 57.7603C197.789 57.6585 196.672 57.6572 195.903 57.7567C195.629 57.8346 195.189 57.8772 194.641 57.8788C194.093 57.8804 193.463 57.8409 192.833 57.7656C192.112 57.6788 191.392 57.6406 190.804 57.658C190.215 57.6754 189.796 57.7471 189.622 57.8604C188.881 57.8164 188.225 57.7828 187.578 57.7344C186.814 57.6733 186.092 57.6553 185.49 57.6823C184.527 57.7014 183.489 57.6902 182.4 57.6491C179.26 57.5462 176.117 57.4508 173.077 57.4079C172.273 57.3957 171.577 57.4287 170.782 57.4017C169.987 57.3747 169.357 57.4477 168.363 57.3006C168.173 57.2778 167.983 57.2631 167.806 57.2578C167.629 57.2524 167.471 57.2565 167.344 57.2698C165.598 57.3861 163.55 57.4025 161.321 57.3181C158.268 57.2975 155.102 57.239 152.045 57.2258C151.148 57.2372 150.301 57.2677 149.512 57.3171C148.911 57.347 148.282 57.3672 147.628 57.3777C147.127 57.3871 146.647 57.3595 146.732 57.5209C146.816 57.6823 146.065 57.5813 145.632 57.5515C144.144 57.4732 142.623 57.3673 141.087 57.2348C139.573 57.0909 138.089 57.0071 136.725 56.9885C135.74 56.9777 134.724 57.0187 133.457 56.7983C133.506 56.7169 133.554 56.6355 133.83 56.5505C132.797 56.3166 131.618 56.1154 130.391 55.9634C129.164 55.8115 127.925 55.7132 126.775 55.6767L125.189 55.2341C124.799 55.1821 124.4 55.1443 124.018 55.1228C123.635 55.1014 123.277 55.0968 122.964 55.1094C122.723 55.1159 122.428 55.0994 122.135 55.0631C121.842 55.0268 121.57 54.9731 121.368 54.9118C121.067 54.8339 120.7 54.7666 120.311 54.7185C119.923 54.6704 119.531 54.6436 119.185 54.6414C118.095 54.5932 116.932 54.4821 115.815 54.3193C115.525 54.2239 115.343 54.1253 115.292 54.0357C115.241 53.9461 115.323 53.8694 115.528 53.8151C115.858 53.7192 116.043 53.597 116.073 53.4559C116.102 53.3148 115.975 53.1577 115.699 52.9943C115.557 52.8939 115.51 52.7989 115.56 52.7149C115.61 52.631 115.755 52.5599 115.988 52.5059C116.857 52.2561 116.625 52.116 115.203 51.7016C114.972 51.6325 114.693 51.5679 114.385 51.512C114.077 51.456 113.746 51.4099 113.412 51.3766C112.63 51.309 111.859 51.2588 111.112 51.2267C110.692 51.1747 110.261 51.2167 109.778 51.1965C107.358 51.0955 107.004 50.9324 106.221 50.5812L105.65 50.3278C104.591 50.1225 103.433 49.952 102.259 49.8286C101.085 49.7052 99.9244 49.6319 98.861 49.6141C98.4383 49.6127 97.9524 49.5777 97.4777 49.5142C95.9329 49.3203 94.3685 49.1861 92.888 49.1206C91.9655 49.0836 90.971 48.9881 90.0241 48.8455C89.0772 48.7029 88.2181 48.5191 87.55 48.3164C86.9498 48.1338 86.1646 47.97 85.3037 47.8476C84.2959 47.7228 84.2025 47.5762 84.7653 47.4632C85.3281 47.3502 86.2707 47.2048 87.1074 47.086C87.3985 47.0456 87.5789 46.98 87.6284 46.8964C87.678 46.8127 87.5948 46.7144 87.388 46.6124C87.2553 46.4378 87.2323 46.2721 87.3196 46.1194C87.3662 46.0559 87.334 45.9831 87.2251 45.9059C87.1163 45.8288 86.9332 45.749 86.6884 45.672C86.4435 45.595 86.1426 45.5226 85.8059 45.4596C85.4691 45.3966 85.1042 45.3445 84.7361 45.3069C83.1823 45.1145 81.6706 44.9272 80.0862 44.7866C79.4222 44.7203 78.7589 44.6382 78.1126 44.5422C76.7895 44.3047 75.3741 44.1078 73.9484 43.9629C73.2718 43.8981 72.6103 43.7848 72.1071 43.6474C70.5199 43.2775 69.0573 42.8886 67.746 42.4877C67.4299 42.3634 67.0164 42.2421 66.5312 42.1314C66.0461 42.0208 65.4999 41.9231 64.9268 41.8447C64.4649 41.7875 64.0889 41.6614 63.7329 41.5776C63.4742 41.3835 63.4465 41.204 63.6526 41.0558C63.8587 40.9077 64.2917 40.7958 64.911 40.7306C65.4982 40.6524 66.0478 40.5616 66.5554 40.4656C67.1674 40.388 67.8948 40.3414 68.7108 40.3275C69.6772 40.2858 70.3918 40.1667 70.7615 39.9857C68.116 39.658 65.6002 39.1876 63.2813 39.2975L61.5194 38.9999C61.5895 38.8815 61.6509 38.7779 61.7079 38.6817C62.127 38.5066 62.2579 38.2857 62.0895 38.0379C61.9507 37.918 61.9633 37.8089 62.1258 37.7216C62.2883 37.6343 62.5951 37.572 63.0152 37.5409C65.5032 37.2215 68.3805 37.0059 70.7138 36.6436C71.4454 36.5755 72.3018 36.5446 73.247 36.5522C74.1614 36.5304 74.1231 36.3668 73.0708 36.165C72.4802 36.0595 71.8781 35.9584 71.267 35.8621C68.572 35.8461 67.4742 36.3297 64.3988 36.195L62.9734 35.5578C62.5879 35.5479 62.2137 35.5441 61.8534 35.5462L56.6967 35.8051C56.2672 35.8181 55.9328 35.8624 55.7317 35.9329C55.5305 36.0035 55.4705 36.0975 55.5586 36.2043C55.5935 36.335 55.5225 36.4548 55.3481 36.5595C55.2356 36.6328 55.3076 36.7303 55.5481 36.8305C56.0903 37.0565 55.3946 37.0895 54.9553 37.1463C54.843 37.1519 54.7135 37.1513 54.5744 37.1446C54.4352 37.1379 54.2891 37.1252 54.1446 37.1073C54 37.0894 53.8599 37.0667 53.7324 37.0403C53.6049 37.014 53.4924 36.9846 53.4016 36.9539C52.6276 36.7389 51.9506 36.5121 51.1897 36.2748C51.7299 36.0478 51.0943 35.6752 51.9372 35.4698C52.0315 35.4288 52.0692 35.3788 52.0481 35.3229C52.0269 35.267 51.9474 35.2064 51.8143 35.1448C51.471 34.9858 51.3076 34.8307 51.3403 34.6953C51.3731 34.5599 51.601 34.4489 52.0009 34.3736L52.0492 34.2922C50.9943 34.0186 51.2738 33.7751 50.8595 33.4855L49.8448 33.2963C47.3202 32.8406 47.3158 32.848 45.1423 32.8648C44.7042 32.6914 45.2608 32.665 45.6782 32.6452L49.1741 32.4507C51.4598 32.3207 53.8119 32.2307 56.3652 32.1816C58.9185 32.1324 61.765 31.9686 64.4042 31.8507C64.5376 31.8415 64.6397 31.8235 64.7019 31.798C64.764 31.7725 64.7844 31.7404 64.7614 31.7043C64.6565 31.6652 64.5192 31.6275 64.3596 31.594C64.2 31.5605 64.0223 31.532 63.8394 31.5107C62.9996 31.4066 62.1378 31.3396 61.2429 31.2526L59.5744 31.1016L59.0611 30.903C58.7271 30.7822 58.4988 30.6347 58.0544 30.5479C57.6882 30.4832 57.2907 30.434 56.9033 30.4056C56.5158 30.3772 56.1526 30.3705 55.8515 30.3863C55.0167 30.4259 54.2615 30.4833 53.4643 30.5355C52.6671 30.5877 52.2278 30.6444 51.5365 30.67C50.132 30.6817 48.7746 30.7124 47.4703 30.7622C46.3717 30.8799 45.3555 31.0194 44.4282 31.1798C43.8498 31.2432 43.3088 31.3191 42.3211 31.2365C41.8524 31.1616 41.4483 31.0632 41.1802 30.9587C40.912 30.8543 40.7973 30.7505 40.8563 30.6659C40.9093 30.5995 41.0593 30.547 41.2923 30.5133C41.5252 30.4796 41.8332 30.4658 42.1874 30.4733C43.1789 30.4611 44.0957 30.42 44.9194 30.3509C46.066 30.2257 47.4617 30.1718 49.0251 30.1922C49.5553 30.2102 49.9107 30.143 50.3745 30.121C50.8382 30.099 51.2311 30.0444 51.7482 30.0846C53.3545 30.1882 54.1248 30.0295 55.0874 29.9263C55.4133 29.8805 55.6152 29.8066 55.6709 29.7126C55.7266 29.6186 55.634 29.5081 55.4032 29.3935C54.9589 29.165 54.4154 28.9353 53.7812 28.708C53.4547 28.5962 53.0365 28.4901 52.5594 28.3979C52.0822 28.3058 51.559 28.23 51.0309 28.1767C50.7148 28.0369 50.5462 27.8993 50.5402 27.7765C50.5343 27.6537 50.6913 27.5496 50.997 27.4735C51.776 27.2999 52.4666 27.1233 54.2121 27.2204C55.0327 27.2574 55.805 27.2645 56.4983 27.2414C58.0361 27.2097 59.8099 27.279 61.6526 27.4429C62.1294 27.4848 62.598 27.5135 63.0447 27.5279C66.2304 27.6286 69.2656 27.6788 72.3096 27.7142C73.9222 27.7313 75.548 27.7261 77.2314 27.7757C81.1792 27.8834 84.7729 27.8281 88.5835 27.8631C90.5792 27.8811 92.3655 27.8086 93.8487 27.6494C94.1375 27.596 94.3856 27.5337 94.59 27.4632C93.6071 27.2782 92.5275 27.1317 91.4546 27.0377C90.3816 26.9438 89.3513 26.9055 88.4624 26.9267C87.9737 26.9785 87.342 26.9879 86.6378 26.954C85.9337 26.9201 85.1847 26.8442 84.4744 26.7346L86.5395 26.6726C87.9089 26.6437 89.3115 26.6347 90.6433 26.5931C92.7592 26.5215 94.7202 26.4069 96.9112 26.3606C98.6802 26.3179 100.263 26.2089 101.61 26.037C102.584 25.9116 103.695 25.8227 104.923 25.7721C105.795 25.7451 105.795 25.7451 106.353 25.4885C105.91 25.3225 105.338 25.2993 104.799 25.2961C101.568 25.1916 98.4926 25.1733 95.6362 25.2415C94.1951 25.2476 92.9166 25.3179 91.8621 25.4493C91.6039 25.5047 90.9433 25.4785 90.4131 25.4604C88.7509 25.4331 87.1623 25.441 85.6662 25.4842C83.5978 25.5562 81.2942 25.5391 78.8448 25.4337C78.3803 25.3047 78.915 25.3153 78.9413 25.2709C80.8384 25.1881 82.6979 25.0927 84.6326 25.0225C85.1615 24.9975 85.7269 24.9852 86.3223 24.9856C88.5452 25.0291 90.3977 24.9085 91.62 24.6408C91.6814 24.5372 92.4855 24.5495 92.8409 24.4823C93.0157 24.4241 93.1321 24.3556 93.1867 24.2788C92.669 24.0876 92.0837 24.0866 91.633 24.0864C90.3254 24.1077 89.0675 24.1482 87.8653 24.2076C86.7476 24.2641 85.5105 24.2792 84.1875 24.2525C83.211 24.2269 82.3762 24.2665 81.391 24.2557C80.8566 24.2329 80.3034 24.1964 79.7427 24.1468C80.367 24.0135 81.2156 23.9316 82.2289 23.9067C82.9973 23.8271 83.9581 23.8031 84.0809 23.5959C83.7179 23.4477 83.3137 23.4453 82.989 23.4607C82.3133 23.4601 81.6605 23.4694 81.0343 23.4886C79.7063 23.5308 78.2685 23.5313 76.7511 23.4904C75.9521 23.475 75.1939 23.4797 74.4892 23.5041C72.8923 23.5367 71.3619 23.6093 69.8997 23.6427C66.9045 23.6768 64.1727 23.7992 61.2948 23.8637C60.6543 23.8797 60.0801 23.9357 59.2359 23.8391C58.3916 23.7425 58.3541 23.7299 58.2544 23.6699C58.0182 23.5698 57.9466 23.4727 58.0545 23.3989C58.2219 23.3299 58.5482 23.2915 58.975 23.2905C61.5477 23.1807 63.9879 23.0266 66.2803 22.829C67.2891 22.7894 68.173 22.7087 68.9012 22.5896C69.4787 22.5076 70.1638 22.4533 70.9349 22.4284C72.0564 22.3691 73.2256 22.3257 74.4377 22.2983C75.0017 22.2836 75.4812 22.2396 75.8481 22.1691C76.2151 22.0986 76.4619 22.0029 76.5741 21.8877L75.0881 21.5051C74.8547 21.4872 74.6231 21.4718 74.3943 21.4589L62.0608 21.7345L60.8394 21.7421C59.5007 21.7192 59.1735 21.6628 57.9036 21.2196C60.8017 21.1153 63.0798 20.8114 64.5112 20.3381C64.1672 20.2872 63.8145 20.2435 63.4614 20.208C61.1454 20.0961 58.9561 20.0663 56.9777 20.1199C55.8026 20.1253 54.5943 20.1107 53.3816 20.1035C53.7363 19.8853 55.095 19.9503 55.9806 19.9011C58.0965 19.8241 59.9676 19.6651 61.534 19.4292C62.0741 19.3372 62.7497 19.2784 63.5301 19.2554C64.311 19.2475 64.9633 19.1918 65.4302 19.0932C65.8972 18.9946 66.1646 18.856 66.2092 18.6896C66.2827 18.5389 66.4413 18.3989 66.6824 18.2716C66.2558 18.091 65.5785 17.9181 64.7776 17.7852C63.9766 17.6524 63.1071 17.5688 62.3321 17.5501C60.6777 17.4758 58.9618 17.354 57.2279 17.188C56.3643 17.1043 55.5174 17.0563 54.7423 17.047C54.0587 17.0399 53.2818 16.9794 52.5299 16.8748C51.7781 16.7702 51.0926 16.6272 50.5781 16.4677C49.8837 16.2705 49.2355 16.0711 48.5874 15.8716C47.9394 15.6722 47.1873 15.4202 46.4308 15.1756C45.7638 15.1373 45.1142 15.1127 44.491 15.1022C44.0062 15.1111 43.4404 15.0845 42.8605 15.0253C42.2806 14.9661 41.7106 14.877 41.2181 14.7683C41.507 14.6611 41.8336 14.5665 42.1776 14.4423C41.7054 14.2783 41.363 14.111 41.1713 13.9507C40.9795 13.7904 40.9425 13.6404 41.0625 13.5098C41.1327 13.3914 40.6193 13.1928 40.4419 13.0358C40.2135 12.9005 40.1707 12.7741 40.3188 12.6734C40.467 12.5727 40.7994 12.5023 41.2723 12.4714C41.8589 12.4144 42.3363 12.3286 42.6849 12.2174C42.8002 12.1886 42.8589 12.1491 42.8556 12.1025C42.8524 12.0559 42.7872 12.0038 42.6661 11.9509C42.545 11.898 42.3719 11.8459 42.1625 11.7995C41.9532 11.7532 41.7143 11.7139 41.4677 11.6854C40.7123 11.6045 39.9622 11.5521 39.2603 11.5311C38.0511 11.4926 36.8935 11.4684 35.7875 11.4585C34.5644 11.4436 33.2036 11.3518 31.8434 11.1924C30.6257 11.0416 29.5339 10.9064 28.9384 10.6181C28.343 10.3299 27.3909 10.3391 26.6589 10.1293C27.0701 9.94015 27.801 9.80875 28.7778 9.74831C29.417 9.72674 29.9506 9.67013 30.3443 9.5821C30.7381 9.49407 30.9832 9.37657 31.0641 9.23713L28.8415 8.65207C27.0666 8.37664 26.0845 8.58863 24.1667 8.4782L26.1428 8.26222C26.1825 8.24087 26.1973 8.21581 26.1866 8.18822C25.9948 7.7514 25.6895 7.65799 23.6695 7.41575L22.5358 7.27533L20.7413 7.10869C20.454 7.01917 20.2552 6.92582 20.1649 6.83796C20.0746 6.7501 20.0959 6.67083 20.2267 6.60807C20.4896 6.50252 20.5696 6.36764 20.4592 6.21586C20.2851 6.11531 20.2708 6.02262 20.4186 5.95386C20.5664 5.88511 20.867 5.84463 21.2682 5.83946C21.5885 5.83146 21.6123 5.71526 21.7865 5.64946C21.9596 5.55876 22.2559 5.48918 22.6552 5.44542C23.0545 5.40166 23.5473 5.38476 24.1003 5.39587C25.7307 5.40495 27.2623 5.37091 28.6679 5.29434L28.4159 5.26314C29.881 5.33036 31.2507 5.33851 32.4584 5.2872C33.6686 5.22262 35.2217 5.26405 36.5071 5.22467C37.5536 5.2337 38.3503 5.14431 38.7282 4.97549C39.0942 4.81429 40.4241 4.85191 41.4425 4.88272C42.0458 4.90266 42.6289 4.9111 43.1855 4.90796C43.9327 4.87148 44.8668 4.90587 45.8323 5.00541C46.122 5.036 46.4073 5.05219 46.6608 5.05242C49.1151 5.09426 51.565 5.14349 53.9861 5.16533C54.5449 5.15276 55.2002 5.18156 55.875 5.24836C56.1587 5.27736 56.4347 5.28938 56.6661 5.28278C60.4916 5.21644 64.8085 5.38571 68.5589 5.29416C69.0134 5.27254 69.5167 5.26805 70.0544 5.28079C71.2625 5.33457 72.3117 5.29996 73.0426 5.18223C73.4369 5.11961 73.9425 5.08511 74.527 5.08092C75.1115 5.07672 75.7622 5.10294 76.4376 5.15789C77.5614 5.23064 78.6001 5.23853 79.444 5.18072C81.0894 5.12731 82.8198 5.10535 84.6215 5.11501C85.1735 5.12436 85.6588 5.1036 86.0397 5.05436C86.4206 5.00511 86.6869 4.92869 86.818 4.83103C86.3755 4.66501 85.8917 4.64481 85.4324 4.6594C83.6518 4.62157 81.8756 4.57634 80.1283 4.55852C78.5643 4.50759 77.0636 4.49203 75.6484 4.51204C74.9456 4.53462 74.0688 4.48314 73.2091 4.3688C72.1555 4.224 71.0704 4.15207 70.1731 4.16754C69.5079 4.17138 68.8057 4.15891 68.0767 4.13031C67.6101 4.09581 67.1318 4.03658 66.691 3.95869C66.5161 3.92486 66.3256 3.89641 66.1319 3.87517C65.9383 3.85393 65.7457 3.84038 65.5663 3.83535C65.3868 3.83032 65.2245 3.83393 65.0899 3.84597C64.9553 3.858 64.8514 3.8782 64.7845 3.90526C64.1095 4.13146 62.6003 4.01602 61.308 3.991C59.3713 3.60816 57.9299 3.83476 56.1199 3.61852C55.9768 3.60418 55.8357 3.5955 55.7054 3.59302C55.5751 3.59055 55.4584 3.59432 55.3621 3.6041C51.8593 3.73425 47.7768 3.62579 44.0991 3.67073C43.6935 3.6773 43.2227 3.65478 42.7404 3.60571C39.5876 3.28097 36.5563 3.18878 34.2392 3.34716C33.9573 3.36143 33.6366 3.36203 33.2917 3.34896C31.7074 3.21989 30.1924 3.16843 28.8732 3.19888C26.8056 3.18905 24.8176 3.19702 22.7168 3.16719C21.2686 3.12474 19.9982 3.17009 19.0328 3.29872C19.0021 3.35052 18.359 3.29471 17.8664 3.2893C17.5831 3.15889 17.3374 3.0411 17.0454 2.92548C16.7843 2.78246 16.3931 2.63772 15.8986 2.5011C15.4041 2.36447 14.8178 2.23916 14.1792 2.13362C13.0874 1.99839 12.9782 1.80217 13.7422 1.72998C15.7113 1.49114 18.1874 1.39338 20.9885 1.44388C23.3299 1.44792 25.7135 1.45717 28.0882 1.48121C29.4733 1.50183 30.9335 1.54764 32.2809 1.55566C32.7356 1.57328 33.2027 1.59925 33.6773 1.63329C34.2597 1.68264 34.8251 1.70953 35.3432 1.71252C37.0067 1.67095 38.8632 1.70716 40.8241 1.81941C41.5424 1.84389 42.232 1.85214 42.8829 1.84404C44.4226 1.81357 46.0919 1.83599 47.8466 1.91071C48.9371 1.95285 49.9945 1.97488 51.0079 1.97658C51.3658 1.98118 51.6572 1.94578 52.0019 1.97259C55.036 2.25305 57.1844 2.05047 59.9151 2.15832C61.2423 2.18839 62.5102 2.18847 63.7012 2.15857C66.0254 2.16002 68.4143 2.19077 70.8585 2.25069C74.0906 2.34915 77.0857 2.31498 80.1717 2.35563C80.781 2.36417 81.3693 2.36272 81.9323 2.35127C84.671 2.27562 87.6456 2.29166 90.7837 2.39901C91.4962 2.41452 92.1362 2.39555 92.6635 2.34332C93.1909 2.29108 93.5942 2.20669 93.8483 2.09544C93.9558 2.01908 93.8861 1.9199 93.6527 1.81703C93.2654 1.68566 92.828 1.55694 92.3478 1.433L74.88 1.0171C74.1463 0.995384 73.4309 0.983691 72.7372 0.982074C70.6972 0.97846 68.5943 0.946106 66.4391 0.885173C64.3095 0.827939 62.2751 0.838099 60.2118 0.820868C59.6041 0.815092 58.9803 0.801473 58.343 0.780045C54.0351 0.610453 49.8344 0.506864 45.7706 0.47003C44.0609 0.464806 42.2138 0.386972 40.4709 0.361742C38.7279 0.336513 36.3444 0.327277 34.2768 0.317443L27.8755 0.318954C26.6164 0.313936 25.3904 0.328913 24.1689 0.336493C22.6866 -0.204551 22.1758 -0.331366 20.1978 -0.568405C19.5211 -0.655841 18.8328 -0.708024 18.2135 -0.718834C16.25 -0.676062 13.7863 -0.854106 11.9242 -0.830536C10.8007 -0.842163 9.84727 -0.78206 9.16164 -0.656374C8.56647 -0.557737 7.88588 -0.479687 7.13039 -0.423405C5.06083 -0.886252 4.87844 -1.18686 6.43522 -1.30384C6.85701 -1.33104 7.43799 -1.32262 7.74257 -1.38022C7.91733 -1.4153 8.15607 -1.43536 8.43977 -1.43883C8.72347 -1.44229 9.04427 -1.42908 9.37702 -1.4002C10.4272 -1.32446 11.4115 -1.30664 12.2312 -1.34855C13.0027 -1.40401 13.9483 -1.4018 14.9769 -1.34212C15.7328 -1.2485 16.3971 -1.38069 17.0508 -1.41888C17.7045 -1.45707 18.2409 -1.52568 19.2619 -1.42306C19.4488 -1.40262 19.6344 -1.39035 19.8045 -1.3872C19.9745 -1.38404 20.1244 -1.39008 20.2427 -1.40484C21.3393 -1.47093 22.6478 -1.46398 24.0621 -1.38457C26.2311 -1.30643 28.2663 -1.3035 30.0969 -1.37588C31.1927 -1.43921 32.127 -1.55153 32.8632 -1.70845C33.0639 -1.76093 33.3619 -1.7924 33.7287 -1.79984C35.5705 -1.7671 37.5704 -1.64388 39.5994 -1.43813C40.3638 -1.35569 41.1272 -1.29048 41.8732 -1.24389C43.4067 -1.14039 44.8898 -1.08239 46.2786 -1.07162C48.2967 -1.06991 50.3979 -1.03009 52.5635 -0.952513C53.9 -0.909319 55.1878 -0.893377 56.4116 -0.904859C57.6695 -0.910271 59.0126 -0.877322 60.4103 -0.806782C61.8003 -0.749296 63.0252 -0.782416 63.9375 -0.902136C64.2379 -0.966649 64.4798 -1.04326 64.6588 -1.13053C62.6236 -1.41451 60.5187 -1.55884 58.768 -1.53444C58.1031 -1.55326 57.5509 -1.53427 56.8502 -1.64488L56.8283 -1.60788C56.6888 -1.58387 56.4785 -1.57821 56.2372 -1.59197C55.996 -1.60573 55.7409 -1.63795 55.5203 -1.68249C55.6036 -1.8231 55.6826 -1.9563 55.7396 -2.0525C57.0735 -2.03553 58.3687 -2.03691 59.6185 -2.05664C60.672 -2.08502 62.1022 -1.83639 63.0141 -1.92999C64.7928 -1.81295 65.9253 -1.97454 67.5203 -1.92792C69.1154 -1.88129 70.8722 -1.72725 72.4672 -1.68063C73.8591 -1.65504 75.2105 -1.64948 76.514 -1.66397C76.9639 -1.68431 77.4826 -1.67953 78.0382 -1.64995C78.8193 -1.59428 79.5457 -1.58495 80.1343 -1.62303C80.7229 -1.66112 81.1497 -1.74509 81.3661 -1.86531C81.1624 -1.97791 80.8879 -2.12311 80.5714 -2.27352C81.1537 -2.39711 82.038 -2.44916 83.0933 -2.4219L84.5843 -2.42787C84.9795 -2.42461 85.2815 -2.45802 85.428 -2.52119C85.5745 -2.58436 85.5543 -2.67246 85.3715 -2.76727C82.5442 -3.24453 82.4401 -3.29714 80.365 -2.99016L77.6099 -3.13281L77.6563 -3.135ZM114.922 -1.82398L114.712 -1.84998L114.922 -1.82398ZM458.27 48.9538L458.222 49.0352L458.274 48.9464L458.736 49.0036L458.767 48.9518L458.27 48.9538ZM391.205 13.2747C390.552 13.1858 389.893 13.1042 389.231 13.0302C389.058 13.0187 388.896 13.0162 388.759 13.0227C388.621 13.0292 388.513 13.0446 388.443 13.0676C388.39 13.1564 388.759 13.218 389.095 13.2596C389.519 13.3156 389.952 13.3512 390.349 13.3627C390.746 13.3742 391.094 13.3612 391.355 13.3251L391.735 13.2927L391.205 13.2747ZM54.9235 34.9182C55.3533 34.9332 55.761 34.9356 56.1363 34.9255C57.8015 34.8537 59.3958 34.7493 61.103 34.6827C63.2571 34.5137 65.7323 34.4449 68.4358 34.4788C69.492 34.4954 70.3843 34.4406 71.0086 34.3209C71.3823 34.2566 71.8647 34.2191 72.4262 34.2105L79.5734 34.0154C80.0152 33.9749 80.3972 33.9181 80.7103 33.8464C80.0804 33.7684 79.6605 33.7164 79.4086 33.6852C78.8858 33.6764 78.4365 33.7002 78.1056 33.7542C77.7502 33.8456 77.1495 33.8818 76.4228 33.8555C75.6891 33.8338 74.9737 33.8221 74.2801 33.8205C72.9702 33.8251 71.6514 33.8445 70.3372 33.8564C69.8258 34.1108 68.3166 33.9954 67.0243 33.9704L66.0259 33.9818C62.7624 34.1137 59.645 34.2951 56.6889 34.5253C56.1176 34.5642 55.6254 34.6263 55.2275 34.7096C55.0775 34.7747 55.0295 34.8557 55.0871 34.9465L54.8772 34.9205L54.9235 34.9182ZM200.657 59.243C201.449 59.2603 202.273 59.2959 203.118 59.3492C203.769 59.4037 204.404 59.4367 204.998 59.4471C208.327 59.5041 211.795 59.6358 215.357 59.8404C215.823 59.8714 216.271 59.8866 216.683 59.8855L219.599 59.8335C220.517 59.8043 220.535 59.7747 219.866 59.3821C219.311 59.3059 218.75 59.2364 218.186 59.1741C217.851 59.1325 217.305 59.0649 217.177 59.1285C216.398 59.3021 214.977 59.1896 213.782 59.1528C210.322 59.0579 206.754 58.9179 203.261 58.803C202.523 58.775 201.808 58.7608 201.123 58.7606C200.698 58.7547 200.311 58.7658 199.977 58.7934C199.879 58.7962 199.797 58.8044 199.737 58.8175C199.677 58.8306 199.639 58.8482 199.627 58.8692C199.614 58.8902 199.627 58.9141 199.665 58.9393C199.703 58.9645 199.764 58.9904 199.845 59.0154C200.131 59.1028 200.461 59.1865 200.825 59.2638L200.657 59.243ZM226 2.25829L229.408 2.21174C229.817 2.20675 230.164 2.15435 230.601 2.17676C232.935 2.24777 235.095 2.22799 236.991 2.11826C237.637 2.07348 238.392 2.06452 239.215 2.09189C241.737 2.17298 244.115 2.17632 246.286 2.1018C247.689 2.08685 249.003 2.03662 250.206 1.95186C250.299 1.93219 250.357 1.90547 250.376 1.87355C250.395 1.84162 250.374 1.80523 250.316 1.76686C250.301 1.74261 250.26 1.71653 250.195 1.69042C250.131 1.6643 250.045 1.63876 249.943 1.61556C249.841 1.59237 249.726 1.57208 249.605 1.55607C249.484 1.54005 249.361 1.5287 249.244 1.52282C247.723 1.40809 246.279 1.36812 245.031 1.40616C243.873 1.45167 242.627 1.46498 241.311 1.4459C240.052 1.44088 239.198 1.58927 237.642 1.47604C236.984 1.43876 236.404 1.45103 235.999 1.51081C235.184 1.6099 234.047 1.61541 232.789 1.52637C232.037 1.4813 231.318 1.46198 230.66 1.46913C229.063 1.5017 227.537 1.56688 226.057 1.62986C225.591 1.64443 225.091 1.64644 224.566 1.63585L217.157 1.51252C215.376 1.4747 213.6 1.42947 211.853 1.41164C210.424 1.37293 209.094 1.38505 207.91 1.44758C206.648 1.5133 205.271 1.53999 203.806 1.52712C201.531 1.56309 199.269 1.57685 196.793 1.57201C195.214 1.57498 193.597 1.56536 191.946 1.53574C191.112 1.49761 190.403 1.52866 189.957 1.62291C189.685 1.70051 189.047 1.6373 188.516 1.61928C185.688 1.44571 183.036 1.40459 180.745 1.49877C180.452 1.51411 180.131 1.51967 179.788 1.51534C177.582 1.51211 175.295 1.49107 173.177 1.49084C172.619 1.49815 172.094 1.51823 171.609 1.55082C171.661 1.60398 171.809 1.6616 172.023 1.71173C172.236 1.76186 172.499 1.80065 172.757 1.82005C174.76 1.96857 176.695 2.04703 178.479 2.05214C181.448 2.03322 184.559 2.07576 187.779 2.1793C190.277 2.28368 192.555 2.26171 194.443 2.115C195.919 2.00553 197.839 2.04672 199.873 2.23149C200.743 2.31973 201.588 2.35502 202.292 2.33252C202.969 2.30301 203.747 2.31017 204.578 2.35357C206.332 2.43608 208.018 2.47436 209.604 2.46765C211.155 2.43727 212.601 2.35429 214.194 2.32911C215.786 2.30394 218.212 2.31836 220.175 2.27559C222.139 2.23282 224.08 2.22706 226 2.25829ZM84.7781 -2.07025C84.958 -1.84144 85.5948 -1.69902 86.2798 -1.63801C88.6416 -1.36709 90.9765 -1.25181 92.8925 -1.3115C93.9275 -1.39477 95.3073 -1.36272 96.7607 -1.22165C98.4531 -1.075 100.035 -1.05068 101.227 -1.15297C101.52 -1.17085 101.743 -1.20863 101.879 -1.26296C101.905 -1.30737 101.953 -1.38877 101.962 -1.40357C101.837 -1.4411 101.683 -1.47588 101.513 -1.50522C101.343 -1.53456 101.161 -1.55767 100.98 -1.57278L93.1576 -1.83471L91.7943 -1.89235C89.3043 -2.04335 86.9317 -2.10351 84.7781 -2.07025ZM100.166 1.55132C101.387 1.92496 101.391 1.91754 102.016 2.00295C105.034 2.35773 108.05 2.54925 110.704 2.55471C111.294 2.55363 111.795 2.51756 112.164 2.44954C112.354 2.44032 112.475 2.41103 112.5 2.36806C112.526 2.32508 112.454 2.27191 112.3 2.22013L111.329 1.95691C109.566 1.84296 107.828 1.75241 106.126 1.68582C104.144 1.60718 102.388 1.60415 100.334 1.57212L100.166 1.55132ZM200.51 57.5885C201.648 58.1028 201.652 58.0954 203.557 58.228C204.884 58.322 206.172 58.3772 207.381 58.3919C208.859 58.4081 210.375 58.4369 211.848 58.4605C212.208 58.4769 212.513 58.4633 212.704 58.4224C212.895 58.3814 212.958 58.3161 212.881 58.239C212.688 58.1553 212.385 58.0743 212.023 58.0092C211.66 57.9442 211.259 57.8988 210.885 57.8805L210.081 57.8683C209.104 57.8427 208.09 57.8045 207.147 57.7988C206.535 57.8202 205.826 57.8037 205.075 57.7507C204.325 57.6977 203.553 57.6096 202.821 57.4934L200.51 57.5885ZM106.241 -1.39789C106.544 -1.30884 106.888 -1.22354 107.262 -1.14428C108.711 -0.92458 110.245 -0.799799 111.562 -0.794398C112.185 -0.780789 112.755 -0.829381 113.389 -0.758769C114.527 -0.66441 115.629 -0.614148 116.637 -0.610702C116.637 -0.610702 116.92 -0.631305 117.012 -0.635703L117.205 -0.961311C116.728 -1.03674 116.231 -1.09837 115.736 -1.14334C114.074 -1.22997 112.442 -1.2892 110.813 -1.35583C109.185 -1.42245 108.617 -1.45306 107.552 -1.48168C107.077 -1.46595 106.638 -1.43788 106.241 -1.39789ZM70.2605 39.0816L72.4348 39.7481C73.1384 39.806 73.7957 39.8165 74.3067 39.778C74.8177 39.7395 75.1544 39.654 75.2656 39.5347C75.4446 39.4789 75.4626 39.3962 75.3156 39.3039C75.1686 39.2117 74.8681 39.117 74.4771 39.0399C74.1008 38.9485 73.6713 38.8665 73.215 38.799C72.7587 38.7316 72.2855 38.6801 71.8248 38.6479L70.2605 39.0816ZM88.3637 35.7634C86.9415 35.6504 85.5814 35.6042 84.387 35.6283C83.6346 35.6944 82.615 35.6733 81.5373 35.5693C79.5775 35.362 77.6883 35.3046 76.2683 35.4092C76.2683 35.4092 76.2156 35.498 75.975 35.5238C75.7343 35.5496 76.6888 35.6122 76.8988 35.6382C78.4387 35.7018 79.9874 35.7507 81.3261 35.7735C82.1572 35.7725 83.0363 35.7935 83.9483 35.8361C85.2031 35.9019 86.3931 35.9232 87.4719 35.8992C87.4719 35.8992 87.8892 35.8794 88.3593 35.7708L88.3637 35.7634ZM240.238 1.05086C239.559 0.92535 238.822 0.823339 238.084 0.752492C237.345 0.681642 236.623 0.643798 235.973 0.641783C235.475 0.635234 235.072 0.668374 234.828 0.735961C234.584 0.80355 234.512 0.90173 234.625 1.01498C235.129 1.07739 235.801 1.1606 236.179 1.2074C237.489 1.20283 238.606 1.14264 240.238 1.05086ZM367.39 11.6278C366.845 11.5268 366.245 11.4495 365.657 11.4049C365.07 11.3603 364.52 11.35 364.069 11.3754C363.837 11.3864 363.994 11.5012 363.955 11.5678C363.929 11.5829 363.929 11.6017 363.956 11.6221C363.982 11.6426 364.033 11.6641 364.104 11.6843C364.175 11.7044 364.263 11.7226 364.359 11.7368C364.455 11.751 364.555 11.7607 364.649 11.765C365.241 11.8085 365.799 11.8215 366.274 11.8027C366.749 11.7839 367.126 11.734 367.372 11.6574L367.39 11.6278ZM375.909 13.0722C375.825 13.0126 375.646 12.9504 375.404 12.8972C375.162 12.8439 374.875 12.8031 374.594 12.7822C374.097 12.7794 373.646 12.7959 373.258 12.8312C372.836 12.8583 373.139 13.031 373.71 13.1334C373.951 13.1745 374.209 13.2066 374.463 13.227C374.717 13.2475 374.96 13.2558 375.173 13.2513C375.386 13.2468 375.562 13.2296 375.689 13.2011C375.815 13.1726 375.887 13.1335 375.901 13.087L375.909 13.0722ZM128.357 -0.763733C127.086 -0.976761 126.108 -0.923169 125.032 -1.00879C123.955 -1.09441 123.69 -1.10342 123.834 -0.966411C123.979 -0.829402 124.716 -0.857189 125.178 -0.79998C125.802 -0.724066 126.43 -0.680478 126.992 -0.674075C127.553 -0.667674 128.026 -0.698715 128.357 -0.763733ZM393.218 35.2809C392.544 35.2331 391.885 35.1993 391.249 35.1801C391.165 35.1999 391.113 35.2258 391.095 35.2563C391.077 35.2868 391.093 35.3213 391.144 35.3577C391.144 35.3577 391.575 35.4667 391.827 35.4979C392.755 35.6049 392.801 35.4517 393.218 35.2809ZM488.371 55.1285C488.827 55.2723 489.039 55.3701 489.404 55.4391C489.572 55.4631 489.745 55.4805 489.911 55.4901C490.077 55.4996 490.231 55.5011 490.363 55.4943C490.523 55.4529 490.561 55.3895 490.468 55.3167C490.468 55.3167 490.004 55.1877 489.827 55.1817C489.323 55.1513 488.834 55.1334 488.371 55.1285ZM106.722 -1.98171C105.756 -2.10133 104.832 -2.21576 104.163 -2.07616C105.697 -1.92593 105.697 -1.92592 106.722 -1.98171ZM122.365 -0.61622C121.39 -0.872045 120.817 -0.89526 120.349 -0.865866C120.25 -0.858462 120.184 -0.841961 120.162 -0.818869C120.139 -0.795776 120.162 -0.767344 120.226 -0.737874C120.29 -0.708403 120.392 -0.679501 120.516 -0.655535C120.641 -0.631569 120.781 -0.613844 120.916 -0.605044C121.424 -0.597681 121.909 -0.60142 122.365 -0.61622ZM172.559 -0.508042C172.581 -0.545043 172.607 -0.589444 172.355 -0.620649C172.289 -0.636491 172.212 -0.650112 172.13 -0.660153C172.049 -0.670197 171.968 -0.676299 171.893 -0.67785C171.893 -0.67785 171.867 -0.633447 171.849 -0.603847L172.559 -0.508042ZM207.414 60.922L206.854 60.9558L207.106 60.987L207.77 61.0058L207.414 60.922ZM404.919 12.4948C404.709 12.4688 404.499 12.4428 404.468 12.4946C404.424 12.5027 404.396 12.5142 404.388 12.5284C404.38 12.5426 404.391 12.5589 404.42 12.576C404.42 12.576 404.714 12.6124 404.84 12.628L404.919 12.4948ZM372.22 12.9091C372.082 12.9062 371.957 12.9096 371.853 12.9193L371.827 12.9637L372.247 13.0158L372.22 12.9091ZM87.2546 23.4885C87.0924 23.4616 86.9205 23.4403 86.7507 23.4261L86.5407 23.4001C86.5407 23.4001 86.7663 23.4757 86.8923 23.4913C87.0183 23.5069 87.1199 23.4877 87.2546 23.4885Z" fill="#42A7C3"/>
</g>
</svg>
