<svg width="528" height="148" viewBox="0 0 528 148" fill="none" xmlns="http://www.w3.org/2000/svg">
<rect x="1" y="5" width="4" height="4" rx="0.5" fill="#216BD6"/>
<rect x="49" y="5" width="4" height="4" rx="0.5" fill="#216BD6"/>
<rect x="49" y="11" width="4" height="4" rx="0.5" fill="#216BD6"/>
<rect x="55" y="11" width="4" height="4" rx="0.5" fill="#216BD6"/>
<rect x="61" y="11" width="4" height="4" rx="0.5" fill="#216BD6"/>
<rect x="73" y="11" width="4" height="4" rx="0.5" fill="#216BD6"/>
<rect x="79" y="11" width="4" height="4" rx="0.5" fill="#216BD6"/>
<rect x="91" y="11" width="4" height="4" rx="0.5" fill="#216BD6"/>
<rect x="97" y="11" width="4" height="4" rx="0.5" fill="#216BD6"/>
<rect x="43" y="11" width="4" height="4" rx="0.5" fill="#216BD6"/>
<rect x="43" y="17" width="4" height="4" rx="0.5" fill="#216BD6"/>
<rect x="43" y="23" width="4" height="4" rx="0.5" fill="#216BD6"/>
<rect x="43" y="29" width="4" height="4" rx="0.5" fill="#216BD6"/>
<rect x="37" y="29" width="4" height="4" rx="0.5" fill="#216BD6"/>
<rect x="37" y="35" width="4" height="4" rx="0.5" fill="#216BD6"/>
<rect x="31" y="35" width="4" height="4" rx="0.5" fill="#216BD6"/>
<rect x="25" y="35" width="4" height="4" rx="0.5" fill="#216BD6"/>
<rect x="19" y="29" width="4" height="4" rx="0.5" fill="#216BD6"/>
<rect x="43" y="35" width="4" height="4" rx="0.5" fill="#216BD6"/>
<rect x="49" y="17" width="4" height="4" rx="0.5" fill="#216BD6"/>
<rect x="55" y="17" width="4" height="4" rx="0.5" fill="#216BD6"/>
<rect x="73" y="17" width="4" height="4" rx="0.5" fill="#216BD6"/>
<rect x="79" y="17" width="4" height="4" rx="0.5" fill="#216BD6"/>
<rect x="91" y="17" width="4" height="4" rx="0.5" fill="#216BD6"/>
<rect x="97" y="17" width="4" height="4" rx="0.5" fill="#216BD6"/>
<rect x="103" y="17" width="4" height="4" rx="0.5" fill="#216BD6"/>
<rect x="109" y="17" width="4" height="4" rx="0.5" fill="#216BD6"/>
<rect x="115" y="17" width="4" height="4" rx="0.5" fill="#216BD6"/>
<rect x="49" y="23" width="4" height="4" rx="0.5" fill="#216BD6"/>
<rect x="55" y="23" width="4" height="4" rx="0.5" fill="#216BD6"/>
<rect x="61" y="17" width="4" height="4" rx="0.5" fill="#216BD6"/>
<rect x="91" y="23" width="4" height="4" rx="0.5" fill="#216BD6"/>
<rect x="97" y="23" width="4" height="4" rx="0.5" fill="#216BD6"/>
<rect x="103" y="23" width="4" height="4" rx="0.5" fill="#216BD6"/>
<rect x="109" y="23" width="4" height="4" rx="0.5" fill="#216BD6"/>
<rect x="115" y="23" width="4" height="4" rx="0.5" fill="#216BD6"/>
<rect x="121" y="23" width="4" height="4" rx="0.5" fill="#216BD6"/>
<rect x="127" y="23" width="4" height="4" rx="0.5" fill="#216BD6"/>
<rect x="133" y="23" width="4" height="4" rx="0.5" fill="#216BD6"/>
<rect x="49" y="29" width="4" height="4" rx="0.5" fill="#216BD6"/>
<rect x="55" y="29" width="4" height="4" rx="0.5" fill="#216BD6"/>
<rect x="73" y="29" width="4" height="4" rx="0.5" fill="#216BD6"/>
<rect x="67" y="29" width="4" height="4" rx="0.5" fill="#216BD6"/>
<rect x="79" y="29" width="4" height="4" rx="0.5" fill="#216BD6"/>
<rect x="85" y="29" width="4" height="4" rx="0.5" fill="#216BD6"/>
<rect x="91" y="29" width="4" height="4" rx="0.5" fill="#216BD6"/>
<rect x="97" y="29" width="4" height="4" rx="0.5" fill="#216BD6"/>
<rect x="103" y="29" width="4" height="4" rx="0.5" fill="#216BD6"/>
<rect x="109" y="29" width="4" height="4" rx="0.5" fill="#216BD6"/>
<rect x="115" y="29" width="4" height="4" rx="0.5" fill="#216BD6"/>
<rect x="121" y="29" width="4" height="4" rx="0.5" fill="#216BD6"/>
<rect x="127" y="29" width="4" height="4" rx="0.5" fill="#216BD6"/>
<rect x="133" y="29" width="4" height="4" rx="0.5" fill="#216BD6"/>
<rect x="49" y="35" width="4" height="4" rx="0.5" fill="#216BD6"/>
<rect x="55" y="35" width="4" height="4" rx="0.5" fill="#216BD6"/>
<rect x="61" y="53" width="4" height="4" rx="0.5" fill="#216BD6"/>
<rect x="67" y="47" width="4" height="4" rx="0.5" fill="#216BD6"/>
<rect x="67" y="53" width="4" height="4" rx="0.5" fill="#216BD6"/>
<rect x="73" y="41" width="4" height="4" rx="0.5" fill="#216BD6"/>
<rect x="67" y="41" width="4" height="4" rx="0.5" fill="#216BD6"/>
<rect x="73" y="47" width="4" height="4" rx="0.5" fill="#216BD6"/>
<rect x="73" y="53" width="4" height="4" rx="0.5" fill="#216BD6"/>
<rect x="79" y="41" width="4" height="4" rx="0.5" fill="#216BD6"/>
<rect x="79" y="47" width="4" height="4" rx="0.5" fill="#216BD6"/>
<rect x="79" y="53" width="4" height="4" rx="0.5" fill="#216BD6"/>
<rect x="85" y="41" width="4" height="4" rx="0.5" fill="#216BD6"/>
<rect x="85" y="47" width="4" height="4" rx="0.5" fill="#216BD6"/>
<rect x="85" y="53" width="4" height="4" rx="0.5" fill="#216BD6"/>
<rect x="91" y="41" width="4" height="4" rx="0.5" fill="#216BD6"/>
<rect x="91" y="47" width="4" height="4" rx="0.5" fill="#216BD6"/>
<rect x="91" y="53" width="4" height="4" rx="0.5" fill="#216BD6"/>
<rect x="97" y="41" width="4" height="4" rx="0.5" fill="#216BD6"/>
<rect x="97" y="47" width="4" height="4" rx="0.5" fill="#216BD6"/>
<rect x="97" y="53" width="4" height="4" rx="0.5" fill="#216BD6"/>
<rect x="103" y="41" width="4" height="4" rx="0.5" fill="#216BD6"/>
<rect x="103" y="47" width="4" height="4" rx="0.5" fill="#216BD6"/>
<rect x="103" y="53" width="4" height="4" rx="0.5" fill="#216BD6"/>
<rect x="103" y="59" width="4" height="4" rx="0.5" fill="#216BD6"/>
<rect x="109" y="41" width="4" height="4" rx="0.5" fill="#216BD6"/>
<rect x="109" y="47" width="4" height="4" rx="0.5" fill="#216BD6"/>
<rect x="109" y="53" width="4" height="4" rx="0.5" fill="#216BD6"/>
<rect x="109" y="59" width="4" height="4" rx="0.5" fill="#216BD6"/>
<rect x="109" y="65" width="4" height="4" rx="0.5" fill="#216BD6"/>
<rect x="115" y="41" width="4" height="4" rx="0.5" fill="#216BD6"/>
<rect x="115" y="47" width="4" height="4" rx="0.5" fill="#216BD6"/>
<rect x="115" y="53" width="4" height="4" rx="0.5" fill="#216BD6"/>
<rect x="115" y="59" width="4" height="4" rx="0.5" fill="#216BD6"/>
<rect x="115" y="65" width="4" height="4" rx="0.5" fill="#216BD6"/>
<rect x="121" y="41" width="4" height="4" rx="0.5" fill="#216BD6"/>
<rect x="121" y="47" width="4" height="4" rx="0.5" fill="#216BD6"/>
<rect x="121" y="53" width="4" height="4" rx="0.5" fill="#216BD6"/>
<rect x="121" y="59" width="4" height="4" rx="0.5" fill="#216BD6"/>
<rect x="121" y="65" width="4" height="4" rx="0.5" fill="#216BD6"/>
<rect x="127" y="41" width="4" height="4" rx="0.5" fill="#216BD6"/>
<rect x="127" y="47" width="4" height="4" rx="0.5" fill="#216BD6"/>
<rect x="127" y="53" width="4" height="4" rx="0.5" fill="#216BD6"/>
<rect x="127" y="59" width="4" height="4" rx="0.5" fill="#216BD6"/>
<rect x="127" y="65" width="4" height="4" rx="0.5" fill="#216BD6"/>
<rect x="139" y="47" width="4" height="4" rx="0.5" fill="#216BD6"/>
<rect x="133" y="59" width="4" height="4" rx="0.5" fill="#216BD6"/>
<rect x="133" y="65" width="4" height="4" rx="0.5" fill="#216BD6"/>
<rect x="145" y="47" width="4" height="4" rx="0.5" fill="#216BD6"/>
<rect x="145" y="53" width="4" height="4" rx="0.5" fill="#216BD6"/>
<rect x="145" y="59" width="4" height="4" rx="0.5" fill="#216BD6"/>
<rect x="145" y="65" width="4" height="4" rx="0.5" fill="#216BD6"/>
<rect x="151" y="41" width="4" height="4" rx="0.5" fill="#216BD6"/>
<rect x="151" y="47" width="4" height="4" rx="0.5" fill="#216BD6"/>
<rect x="151" y="53" width="4" height="4" rx="0.5" fill="#216BD6"/>
<rect x="151" y="59" width="4" height="4" rx="0.5" fill="#216BD6"/>
<rect x="151" y="65" width="4" height="4" rx="0.5" fill="#216BD6"/>
<rect x="157" y="41" width="4" height="4" rx="0.5" fill="#216BD6"/>
<rect x="157" y="47" width="4" height="4" rx="0.5" fill="#216BD6"/>
<rect x="157" y="53" width="4" height="4" rx="0.5" fill="#216BD6"/>
<rect x="157" y="59" width="4" height="4" rx="0.5" fill="#216BD6"/>
<rect x="157" y="65" width="4" height="4" rx="0.5" fill="#216BD6"/>
<rect x="163" y="41" width="4" height="4" rx="0.5" fill="#216BD6"/>
<rect x="163" y="47" width="4" height="4" rx="0.5" fill="#216BD6"/>
<rect x="163" y="53" width="4" height="4" rx="0.5" fill="#216BD6"/>
<rect x="163" y="59" width="4" height="4" rx="0.5" fill="#216BD6"/>
<rect x="163" y="65" width="4" height="4" rx="0.5" fill="#216BD6"/>
<rect x="169" y="41" width="4" height="4" rx="0.5" fill="#216BD6"/>
<rect x="169" y="47" width="4" height="4" rx="0.5" fill="#216BD6"/>
<rect x="169" y="53" width="4" height="4" rx="0.5" fill="#216BD6"/>
<rect x="169" y="59" width="4" height="4" rx="0.5" fill="#216BD6"/>
<rect x="169" y="65" width="4" height="4" rx="0.5" fill="#216BD6"/>
<rect x="175" y="41" width="4" height="4" rx="0.5" fill="#216BD6"/>
<rect x="175" y="47" width="4" height="4" rx="0.5" fill="#216BD6"/>
<rect x="175" y="53" width="4" height="4" rx="0.5" fill="#216BD6"/>
<rect x="175" y="59" width="4" height="4" rx="0.5" fill="#216BD6"/>
<rect x="175" y="65" width="4" height="4" rx="0.5" fill="#216BD6"/>
<rect x="181" y="41" width="4" height="4" rx="0.5" fill="#216BD6"/>
<rect x="181" y="47" width="4" height="4" rx="0.5" fill="#216BD6"/>
<rect x="181" y="53" width="4" height="4" rx="0.5" fill="#216BD6"/>
<rect x="181" y="59" width="4" height="4" rx="0.5" fill="#216BD6"/>
<rect x="181" y="65" width="4" height="4" rx="0.5" fill="#216BD6"/>
<rect x="181" y="71" width="4" height="4" rx="0.5" fill="#216BD6"/>
<rect x="187" y="41" width="4" height="4" rx="0.5" fill="#216BD6"/>
<rect x="187" y="47" width="4" height="4" rx="0.5" fill="#216BD6"/>
<rect x="187" y="53" width="4" height="4" rx="0.5" fill="#216BD6"/>
<rect x="187" y="59" width="4" height="4" rx="0.5" fill="#216BD6"/>
<rect x="193" y="41" width="4" height="4" rx="0.5" fill="#216BD6"/>
<rect x="193" y="47" width="4" height="4" rx="0.5" fill="#216BD6"/>
<rect x="193" y="53" width="4" height="4" rx="0.5" fill="#216BD6"/>
<rect x="193" y="71" width="4" height="4" rx="0.5" fill="#216BD6"/>
<rect x="199" y="41" width="4" height="4" rx="0.5" fill="#216BD6"/>
<rect x="199" y="47" width="4" height="4" rx="0.5" fill="#216BD6"/>
<rect x="199" y="53" width="4" height="4" rx="0.5" fill="#216BD6"/>
<rect x="199" y="71" width="4" height="4" rx="0.5" fill="#216BD6"/>
<rect x="199" y="65" width="4" height="4" rx="0.5" fill="#216BD6"/>
<rect x="199" y="77" width="4" height="4" rx="0.5" fill="#216BD6"/>
<rect x="205" y="41" width="4" height="4" rx="0.5" fill="#216BD6"/>
<rect x="205" y="35" width="4" height="4" rx="0.5" fill="#216BD6"/>
<rect x="205" y="29" width="4" height="4" rx="0.5" fill="#216BD6"/>
<rect x="205" y="47" width="4" height="4" rx="0.5" fill="#216BD6"/>
<rect x="205" y="53" width="4" height="4" rx="0.5" fill="#216BD6"/>
<rect x="205" y="71" width="4" height="4" rx="0.5" fill="#216BD6"/>
<rect x="205" y="77" width="4" height="4" rx="0.5" fill="#216BD6"/>
<rect x="211" y="41" width="4" height="4" rx="0.5" fill="#216BD6"/>
<rect x="211" y="35" width="4" height="4" rx="0.5" fill="#216BD6"/>
<rect x="211" y="29" width="4" height="4" rx="0.5" fill="#216BD6"/>
<rect x="211" y="23" width="4" height="4" rx="0.5" fill="#216BD6"/>
<rect x="211" y="47" width="4" height="4" rx="0.5" fill="#216BD6"/>
<rect x="211" y="53" width="4" height="4" rx="0.5" fill="#216BD6"/>
<rect x="211" y="59" width="4" height="4" rx="0.5" fill="#216BD6"/>
<rect x="217" y="41" width="4" height="4" rx="0.5" fill="#216BD6"/>
<rect x="217" y="35" width="4" height="4" rx="0.5" fill="#216BD6"/>
<rect x="217" y="29" width="4" height="4" rx="0.5" fill="#216BD6"/>
<rect x="217" y="23" width="4" height="4" rx="0.5" fill="#216BD6"/>
<rect x="199" y="2" width="4" height="4" rx="0.5" fill="#216BD6"/>
<rect x="217" y="47" width="4" height="4" rx="0.5" fill="#216BD6"/>
<rect x="217" y="53" width="4" height="4" rx="0.5" fill="#216BD6"/>
<rect x="217" y="59" width="4" height="4" rx="0.5" fill="#00EA33"/>
<rect x="217" y="65" width="4" height="4" rx="0.5" fill="#00EA33"/>
<rect x="217" y="71" width="4" height="4" rx="0.5" fill="#216BD6"/>
<rect x="223" y="41" width="4" height="4" rx="0.5" fill="#216BD6"/>
<rect x="223" y="35" width="4" height="4" rx="0.5" fill="#216BD6"/>
<rect x="223" y="29" width="4" height="4" rx="0.5" fill="#216BD6"/>
<rect x="223" y="71" width="4" height="4" rx="0.5" fill="#216BD6"/>
<rect x="223" y="83" width="4" height="4" rx="0.5" fill="#216BD6"/>
<rect x="229" y="41" width="4" height="4" rx="0.5" fill="#216BD6"/>
<rect x="229" y="35" width="4" height="4" rx="0.5" fill="#216BD6"/>
<rect x="229" y="53" width="4" height="4" rx="0.5" fill="#00EA33"/>
<rect x="229" y="59" width="4" height="4" rx="0.5" fill="#00EA33"/>
<rect x="229" y="83" width="4" height="4" rx="0.5" fill="#216BD6"/>
<rect x="235" y="41" width="4" height="4" rx="0.5" fill="#216BD6"/>
<rect x="235" y="35" width="4" height="4" rx="0.5" fill="#216BD6"/>
<rect x="235" y="29" width="4" height="4" rx="0.5" fill="#216BD6"/>
<rect x="235" y="53" width="4" height="4" rx="0.5" fill="#216BD6"/>
<rect x="235" y="59" width="4" height="4" rx="0.5" fill="#00EA33"/>
<rect x="235" y="65" width="4" height="4" rx="0.5" fill="#00EA33"/>
<rect x="235" y="71" width="4" height="4" rx="0.5" fill="#216BD6"/>
<rect x="235" y="77" width="4" height="4" rx="0.5" fill="#216BD6"/>
<rect x="235" y="83" width="4" height="4" rx="0.5" fill="#216BD6"/>
<rect x="241" y="53" width="4" height="4" rx="0.5" fill="#216BD6"/>
<rect x="241" y="59" width="4" height="4" rx="0.5" fill="#216BD6"/>
<rect x="241" y="65" width="4" height="4" rx="0.5" fill="#216BD6"/>
<rect x="241" y="71" width="4" height="4" rx="0.5" fill="#216BD6"/>
<rect x="241" y="77" width="4" height="4" rx="0.5" fill="#216BD6"/>
<rect x="241" y="83" width="4" height="4" rx="0.5" fill="#216BD6"/>
<rect x="241" y="89" width="4" height="4" rx="0.5" fill="#216BD6"/>
<rect x="247" y="41" width="4" height="4" rx="0.5" fill="#216BD6"/>
<rect x="247" y="35" width="4" height="4" rx="0.5" fill="#216BD6"/>
<rect x="247" y="47" width="4" height="4" rx="0.5" fill="#216BD6"/>
<rect x="247" y="53" width="4" height="4" rx="0.5" fill="#216BD6"/>
<rect x="247" y="59" width="4" height="4" rx="0.5" fill="#216BD6"/>
<rect x="247" y="65" width="4" height="4" rx="0.5" fill="#216BD6"/>
<rect x="247" y="71" width="4" height="4" rx="0.5" fill="#216BD6"/>
<rect x="247" y="77" width="4" height="4" rx="0.5" fill="#216BD6"/>
<rect x="247" y="83" width="4" height="4" rx="0.5" fill="#216BD6"/>
<rect x="253" y="41" width="4" height="4" rx="0.5" fill="#216BD6"/>
<rect x="253" y="35" width="4" height="4" rx="0.5" fill="#216BD6"/>
<rect x="253" y="47" width="4" height="4" rx="0.5" fill="#216BD6"/>
<rect x="253" y="53" width="4" height="4" rx="0.5" fill="#216BD6"/>
<rect x="253" y="59" width="4" height="4" rx="0.5" fill="#216BD6"/>
<rect x="253" y="65" width="4" height="4" rx="0.5" fill="#216BD6"/>
<rect x="253" y="71" width="4" height="4" rx="0.5" fill="#216BD6"/>
<rect x="253" y="77" width="4" height="4" rx="0.5" fill="#216BD6"/>
<rect x="253" y="83" width="4" height="4" rx="0.5" fill="#216BD6"/>
<rect x="259" y="41" width="4" height="4" rx="0.5" fill="#216BD6"/>
<rect x="259" y="47" width="4" height="4" rx="0.5" fill="#216BD6"/>
<rect x="259" y="53" width="4" height="4" rx="0.5" fill="#216BD6"/>
<rect x="259" y="59" width="4" height="4" rx="0.5" fill="#216BD6"/>
<rect x="259" y="65" width="4" height="4" rx="0.5" fill="#216BD6"/>
<rect x="259" y="71" width="4" height="4" rx="0.5" fill="#216BD6"/>
<rect x="259" y="77" width="4" height="4" rx="0.5" fill="#216BD6"/>
<rect x="259" y="83" width="4" height="4" rx="0.5" fill="#216BD6"/>
<rect x="265" y="41" width="4" height="4" rx="0.5" fill="#216BD6"/>
<rect x="265" y="47" width="4" height="4" rx="0.5" fill="#216BD6"/>
<rect x="265" y="53" width="4" height="4" rx="0.5" fill="#216BD6"/>
<rect x="265" y="59" width="4" height="4" rx="0.5" fill="#216BD6"/>
<rect x="265" y="65" width="4" height="4" rx="0.5" fill="#216BD6"/>
<rect x="265" y="71" width="4" height="4" rx="0.5" fill="#216BD6"/>
<rect x="265" y="77" width="4" height="4" rx="0.5" fill="#216BD6"/>
<rect x="265" y="83" width="4" height="4" rx="0.5" fill="#216BD6"/>
<rect x="271" y="41" width="4" height="4" rx="0.5" fill="#216BD6"/>
<rect x="274" y="1" width="4" height="4" rx="0.5" fill="#216BD6"/>
<rect x="283" y="41" width="4" height="4" rx="0.5" fill="#216BD6"/>
<rect x="289" y="41" width="4" height="4" rx="0.5" fill="#216BD6"/>
<rect x="295" y="41" width="4" height="4" rx="0.5" fill="#216BD6"/>
<rect x="301" y="41" width="4" height="4" rx="0.5" fill="#216BD6"/>
<rect x="307" y="41" width="4" height="4" rx="0.5" fill="#216BD6"/>
<rect x="313" y="41" width="4" height="4" rx="0.5" fill="#216BD6"/>
<rect x="319" y="41" width="4" height="4" rx="0.5" fill="#216BD6"/>
<rect x="271" y="47" width="4" height="4" rx="0.5" fill="#216BD6"/>
<rect x="283" y="47" width="4" height="4" rx="0.5" fill="#216BD6"/>
<rect x="289" y="47" width="4" height="4" rx="0.5" fill="#216BD6"/>
<rect x="295" y="47" width="4" height="4" rx="0.5" fill="#216BD6"/>
<rect x="301" y="47" width="4" height="4" rx="0.5" fill="#216BD6"/>
<rect x="331" y="47" width="4" height="4" rx="0.5" fill="#216BD6"/>
<rect x="340" y="47" width="4" height="4" rx="0.5" fill="#216BD6"/>
<rect x="367" y="41" width="4" height="4" rx="0.5" fill="#216BD6"/>
<rect x="373" y="41" width="4" height="4" rx="0.5" fill="#216BD6"/>
<rect x="382" y="47" width="4" height="4" rx="0.5" fill="#216BD6"/>
<rect x="367" y="35" width="4" height="4" rx="0.5" fill="#216BD6"/>
<rect x="361" y="35" width="4" height="4" rx="0.5" fill="#216BD6"/>
<rect x="361" y="41" width="4" height="4" rx="0.5" fill="#216BD6"/>
<rect x="271" y="53" width="4" height="4" rx="0.5" fill="#216BD6"/>
<rect x="277" y="53" width="4" height="4" rx="0.5" fill="#216BD6"/>
<rect x="271" y="59" width="4" height="4" rx="0.5" fill="#216BD6"/>
<rect x="277" y="59" width="4" height="4" rx="0.5" fill="#216BD6"/>
<rect x="271" y="65" width="4" height="4" rx="0.5" fill="#216BD6"/>
<rect x="277" y="65" width="4" height="4" rx="0.5" fill="#216BD6"/>
<rect x="283" y="65" width="4" height="4" rx="0.5" fill="#216BD6"/>
<rect x="289" y="65" width="4" height="4" rx="0.5" fill="#216BD6"/>
<rect x="307" y="65" width="4" height="4" rx="0.5" fill="#216BD6"/>
<rect x="313" y="65" width="4" height="4" rx="0.5" fill="#216BD6"/>
<rect x="319" y="65" width="4" height="4" rx="0.5" fill="#216BD6"/>
<rect x="325" y="65" width="4" height="4" rx="0.5" fill="#216BD6"/>
<rect x="331" y="65" width="4" height="4" rx="0.5" fill="#216BD6"/>
<rect x="271" y="71" width="4" height="4" rx="0.5" fill="#216BD6"/>
<rect x="277" y="71" width="4" height="4" rx="0.5" fill="#216BD6"/>
<rect x="283" y="71" width="4" height="4" rx="0.5" fill="#216BD6"/>
<rect x="289" y="71" width="4" height="4" rx="0.5" fill="#216BD6"/>
<rect x="295" y="71" width="4" height="4" rx="0.5" fill="#216BD6"/>
<rect x="301" y="71" width="4" height="4" rx="0.5" fill="#216BD6"/>
<rect x="307" y="71" width="4" height="4" rx="0.5" fill="#216BD6"/>
<rect x="313" y="71" width="4" height="4" rx="0.5" fill="#216BD6"/>
<rect x="319" y="71" width="4" height="4" rx="0.5" fill="#216BD6"/>
<rect x="325" y="71" width="4" height="4" rx="0.5" fill="#216BD6"/>
<rect x="331" y="71" width="4" height="4" rx="0.5" fill="#216BD6"/>
<rect x="337" y="71" width="4" height="4" rx="0.5" fill="#216BD6"/>
<rect x="271" y="77" width="4" height="4" rx="0.5" fill="#216BD6"/>
<rect x="277" y="77" width="4" height="4" rx="0.5" fill="#216BD6"/>
<rect x="283" y="77" width="4" height="4" rx="0.5" fill="#216BD6"/>
<rect x="289" y="77" width="4" height="4" rx="0.5" fill="#216BD6"/>
<rect x="295" y="77" width="4" height="4" rx="0.5" fill="#216BD6"/>
<rect x="301" y="77" width="4" height="4" rx="0.5" fill="#216BD6"/>
<rect x="307" y="77" width="4" height="4" rx="0.5" fill="#216BD6"/>
<rect x="313" y="77" width="4" height="4" rx="0.5" fill="#216BD6"/>
<rect x="319" y="77" width="4" height="4" rx="0.5" fill="#216BD6"/>
<rect x="325" y="77" width="4" height="4" rx="0.5" fill="#216BD6"/>
<rect x="331" y="77" width="4" height="4" rx="0.5" fill="#216BD6"/>
<rect x="343" y="83" width="4" height="4" rx="0.5" fill="#216BD6"/>
<rect x="343" y="89" width="4" height="4" rx="0.5" fill="#216BD6"/>
<rect x="349" y="83" width="4" height="4" rx="0.5" fill="#216BD6"/>
<rect x="349" y="89" width="4" height="4" rx="0.5" fill="#216BD6"/>
<rect x="355" y="89" width="4" height="4" rx="0.5" fill="#216BD6"/>
<rect x="355" y="83" width="4" height="4" rx="0.5" fill="#216BD6"/>
<rect x="361" y="83" width="4" height="4" rx="0.5" fill="#216BD6"/>
<rect x="361" y="77" width="4" height="4" rx="0.5" fill="#216BD6"/>
<rect x="367" y="83" width="4" height="4" rx="0.5" fill="#216BD6"/>
<rect x="373" y="83" width="4" height="4" rx="0.5" fill="#216BD6"/>
<rect x="373" y="89" width="4" height="4" rx="0.5" fill="#216BD6"/>
<rect x="379" y="89" width="4" height="4" rx="0.5" fill="#216BD6"/>
<rect x="397" y="89" width="4" height="4" rx="0.5" fill="#216BD6"/>
<rect x="403" y="89" width="4" height="4" rx="0.5" fill="#216BD6"/>
<rect x="403" y="95" width="4" height="4" rx="0.5" fill="#216BD6"/>
<rect x="397" y="95" width="4" height="4" rx="0.5" fill="#216BD6"/>
<rect x="397" y="101" width="4" height="4" rx="0.5" fill="#216BD6"/>
<rect x="391" y="101" width="4" height="4" rx="0.5" fill="#216BD6"/>
<rect x="385" y="101" width="4" height="4" rx="0.5" fill="#216BD6"/>
<rect x="391" y="95" width="4" height="4" rx="0.5" fill="#216BD6"/>
<rect x="391" y="89" width="4" height="4" rx="0.5" fill="#216BD6"/>
<rect x="403" y="101" width="4" height="4" rx="0.5" fill="#216BD6"/>
<rect x="397" y="107" width="4" height="4" rx="0.5" fill="#216BD6"/>
<rect x="403" y="107" width="4" height="4" rx="0.5" fill="#216BD6"/>
<rect x="415" y="107" width="4" height="4" rx="0.5" fill="#216BD6"/>
<rect x="421" y="107" width="4" height="4" rx="0.5" fill="#216BD6"/>
<rect x="421" y="101" width="4" height="4" rx="0.5" fill="#216BD6"/>
<rect x="421" y="95" width="4" height="4" rx="0.5" fill="#216BD6"/>
<rect x="427" y="95" width="4" height="4" rx="0.5" fill="#216BD6"/>
<rect x="427" y="101" width="4" height="4" rx="0.5" fill="#216BD6"/>
<rect x="433" y="101" width="4" height="4" rx="0.5" fill="#216BD6"/>
<rect x="433" y="95" width="4" height="4" rx="0.5" fill="#216BD6"/>
<rect x="439" y="95" width="4" height="4" rx="0.5" fill="#216BD6"/>
<rect x="439" y="101" width="4" height="4" rx="0.5" fill="#216BD6"/>
<rect x="427" y="89" width="4" height="4" rx="0.5" fill="#216BD6"/>
<rect x="421" y="113" width="4" height="4" rx="0.5" fill="#216BD6"/>
<rect x="427" y="113" width="4" height="4" rx="0.5" fill="#216BD6"/>
<rect x="427" y="107" width="4" height="4" rx="0.5" fill="#216BD6"/>
<rect x="433" y="107" width="4" height="4" rx="0.5" fill="#216BD6"/>
<rect x="439" y="107" width="4" height="4" rx="0.5" fill="#216BD6"/>
<rect x="445" y="107" width="4" height="4" rx="0.5" fill="#216BD6"/>
<rect x="445" y="101" width="4" height="4" rx="0.5" fill="#216BD6"/>
<rect x="445" y="95" width="4" height="4" rx="0.5" fill="#216BD6"/>
<rect x="451" y="101" width="4" height="4" rx="0.5" fill="#216BD6"/>
<rect x="451" y="107" width="4" height="4" rx="0.5" fill="#216BD6"/>
<rect x="457" y="101" width="4" height="4" rx="0.5" fill="#216BD6"/>
<rect x="463" y="101" width="4" height="4" rx="0.5" fill="#216BD6"/>
<rect x="463" y="89" width="4" height="4" rx="0.5" fill="#216BD6"/>
<rect x="469" y="95" width="4" height="4" rx="0.5" fill="#216BD6"/>
<rect x="469" y="89" width="4" height="4" rx="0.5" fill="#216BD6"/>
<rect x="475" y="89" width="4" height="4" rx="0.5" fill="#216BD6"/>
<rect x="475" y="95" width="4" height="4" rx="0.5" fill="#216BD6"/>
<rect x="475" y="101" width="4" height="4" rx="0.5" fill="#216BD6"/>
<rect x="481" y="101" width="4" height="4" rx="0.5" fill="#216BD6"/>
<rect x="481" y="95" width="4" height="4" rx="0.5" fill="#216BD6"/>
<rect x="487" y="89" width="4" height="4" rx="0.5" fill="#216BD6"/>
<rect x="487" y="95" width="4" height="4" rx="0.5" fill="#216BD6"/>
<rect x="493" y="101" width="4" height="4" rx="0.5" fill="#216BD6"/>
<rect x="505" y="101" width="4" height="4" rx="0.5" fill="#216BD6"/>
<rect x="505" y="95" width="4" height="4" rx="0.5" fill="#216BD6"/>
<rect x="512" y="101" width="4" height="4" rx="0.5" fill="#216BD6"/>
<rect x="523" y="101" width="4" height="4" rx="0.5" fill="#216BD6"/>
<rect x="523" y="95" width="4" height="4" rx="0.5" fill="#216BD6"/>
<rect x="523" y="137" width="4" height="4" rx="0.5" fill="#216BD6"/>
<rect x="523" y="131" width="4" height="4" rx="0.5" fill="#216BD6"/>
<rect x="523" y="125" width="4" height="4" rx="0.5" fill="#216BD6"/>
<rect x="523" y="143" width="4" height="4" rx="0.5" fill="#216BD6"/>
<rect x="517" y="137" width="4" height="4" rx="0.5" fill="#216BD6"/>
<rect x="517" y="125" width="4" height="4" rx="0.5" fill="#216BD6"/>
<rect x="517" y="131" width="4" height="4" rx="0.5" fill="#216BD6"/>
<rect x="511" y="131" width="4" height="4" rx="0.5" fill="#216BD6"/>
<rect x="511" y="137" width="4" height="4" rx="0.5" fill="#216BD6"/>
<rect x="505" y="131" width="4" height="4" rx="0.5" fill="#216BD6"/>
<rect x="499" y="131" width="4" height="4" rx="0.5" fill="#216BD6"/>
<rect x="493" y="131" width="4" height="4" rx="0.5" fill="#216BD6"/>
<rect x="493" y="125" width="4" height="4" rx="0.5" fill="#216BD6"/>
<rect x="499" y="125" width="4" height="4" rx="0.5" fill="#216BD6"/>
<rect x="505" y="125" width="4" height="4" rx="0.5" fill="#216BD6"/>
<rect x="511" y="125" width="4" height="4" rx="0.5" fill="#216BD6"/>
<rect x="493" y="81" width="4" height="4" rx="0.5" fill="#216BD6"/>
<rect x="457" y="89" width="4" height="4" rx="0.5" fill="#216BD6"/>
<rect x="457" y="83" width="4" height="4" rx="0.5" fill="#216BD6"/>
<rect x="451" y="83" width="4" height="4" rx="0.5" fill="#216BD6"/>
<rect x="440" y="83" width="4" height="4" rx="0.5" fill="#216BD6"/>
<rect x="409" y="95" width="4" height="4" rx="0.5" fill="#216BD6"/>
<rect x="409" y="89" width="4" height="4" rx="0.5" fill="#216BD6"/>
<rect x="403" y="83" width="4" height="4" rx="0.5" fill="#216BD6"/>
<rect x="373" y="101" width="4" height="4" rx="0.5" fill="#216BD6"/>
<rect x="367" y="89" width="4" height="4" rx="0.5" fill="#216BD6"/>
<rect x="361" y="89" width="4" height="4" rx="0.5" fill="#216BD6"/>
<rect x="361" y="95" width="4" height="4" rx="0.5" fill="#216BD6"/>
<rect x="355" y="95" width="4" height="4" rx="0.5" fill="#216BD6"/>
<rect x="367" y="95" width="4" height="4" rx="0.5" fill="#216BD6"/>
<rect x="361" y="101" width="4" height="4" rx="0.5" fill="#216BD6"/>
<rect x="271" y="83" width="4" height="4" rx="0.5" fill="#216BD6"/>
<rect x="277" y="83" width="4" height="4" rx="0.5" fill="#216BD6"/>
<rect x="277" y="89" width="4" height="4" rx="0.5" fill="#216BD6"/>
<rect x="298" y="92" width="4" height="4" rx="0.5" fill="#216BD6"/>
<rect x="283" y="83" width="4" height="4" rx="0.5" fill="#216BD6"/>
<rect x="289" y="83" width="4" height="4" rx="0.5" fill="#216BD6"/>
<rect x="295" y="83" width="4" height="4" rx="0.5" fill="#216BD6"/>
<rect x="301" y="83" width="4" height="4" rx="0.5" fill="#216BD6"/>
<rect x="307" y="83" width="4" height="4" rx="0.5" fill="#216BD6"/>
<rect x="307" y="89" width="4" height="4" rx="0.5" fill="#216BD6"/>
<rect x="313" y="83" width="4" height="4" rx="0.5" fill="#216BD6"/>
<rect x="313" y="89" width="4" height="4" rx="0.5" fill="#216BD6"/>
<rect x="319" y="83" width="4" height="4" rx="0.5" fill="#216BD6"/>
<rect x="319" y="89" width="4" height="4" rx="0.5" fill="#216BD6"/>
<rect x="319" y="95" width="4" height="4" rx="0.5" fill="#216BD6"/>
<rect x="325" y="83" width="4" height="4" rx="0.5" fill="#216BD6"/>
<rect x="325" y="89" width="4" height="4" rx="0.5" fill="#216BD6"/>
<rect x="325" y="95" width="4" height="4" rx="0.5" fill="#216BD6"/>
<rect x="331" y="83" width="4" height="4" rx="0.5" fill="#216BD6"/>
<rect x="331" y="89" width="4" height="4" rx="0.5" fill="#216BD6"/>
<rect x="331" y="95" width="4" height="4" rx="0.5" fill="#216BD6"/>
<rect x="337" y="101" width="4" height="4" rx="0.5" fill="#216BD6"/>
<rect x="73" y="35" width="4" height="4" rx="0.5" fill="#216BD6"/>
<rect x="67" y="35" width="4" height="4" rx="0.5" fill="#216BD6"/>
<rect x="79" y="35" width="4" height="4" rx="0.5" fill="#216BD6"/>
<rect x="85" y="35" width="4" height="4" rx="0.5" fill="#216BD6"/>
<rect x="91" y="35" width="4" height="4" rx="0.5" fill="#216BD6"/>
<rect x="97" y="35" width="4" height="4" rx="0.5" fill="#216BD6"/>
<rect x="103" y="35" width="4" height="4" rx="0.5" fill="#216BD6"/>
<rect x="109" y="35" width="4" height="4" rx="0.5" fill="#216BD6"/>
<rect x="115" y="35" width="4" height="4" rx="0.5" fill="#216BD6"/>
<rect x="121" y="35" width="4" height="4" rx="0.5" fill="#216BD6"/>
<rect x="127" y="35" width="4" height="4" rx="0.5" fill="#216BD6"/>
<rect x="133" y="35" width="4" height="4" rx="0.5" fill="#216BD6"/>
<rect x="139" y="35" width="4" height="4" rx="0.5" fill="#216BD6"/>
<rect x="85" y="17" width="4" height="4" rx="0.5" fill="#9BC1FD"/>
<rect x="85" y="23" width="4" height="4" rx="0.5" fill="#9BC1FD"/>
<rect x="79" y="23" width="4" height="4" rx="0.5" fill="#9BC1FD"/>
<rect x="73" y="23" width="4" height="4" rx="0.5" fill="#9BC1FD"/>
<rect x="67" y="23" width="4" height="4" rx="0.5" fill="#9BC1FD"/>
<rect x="61" y="23" width="4" height="4" rx="0.5" fill="#9BC1FD"/>
<rect x="61" y="29" width="4" height="4" rx="0.5" fill="#9BC1FD"/>
<rect x="61" y="35" width="4" height="4" rx="0.5" fill="#9BC1FD"/>
<rect x="61" y="41" width="4" height="4" rx="0.5" fill="#9BC1FD"/>
<rect x="139" y="65" width="4" height="4" rx="0.5" fill="#9BC1FD"/>
<rect x="139" y="53" width="4" height="4" rx="0.5" fill="#9BC1FD"/>
<rect x="139" y="59" width="4" height="4" rx="0.5" fill="#9BC1FD"/>
<rect x="133" y="53" width="4" height="4" rx="0.5" fill="#9BC1FD"/>
<rect x="133" y="47" width="4" height="4" rx="0.5" fill="#9BC1FD"/>
<rect x="133" y="41" width="4" height="4" rx="0.5" fill="#9BC1FD"/>
<rect x="139" y="41" width="4" height="4" rx="0.5" fill="#9BC1FD"/>
<rect x="145" y="41" width="4" height="4" rx="0.5" fill="#9BC1FD"/>
<rect x="145" y="35" width="4" height="4" rx="0.5" fill="#9BC1FD"/>
<rect x="187" y="71" width="4" height="4" rx="0.5" fill="#9BC1FD"/>
<rect x="187" y="65" width="4" height="4" rx="0.5" fill="#9BC1FD"/>
<rect x="193" y="65" width="4" height="4" rx="0.5" fill="#9BC1FD"/>
<rect x="193" y="59" width="4" height="4" rx="0.5" fill="#9BC1FD"/>
<rect x="199" y="59" width="4" height="4" rx="0.5" fill="#9BC1FD"/>
<rect x="205" y="59" width="4" height="4" rx="0.5" fill="#9BC1FD"/>
<rect x="205" y="65" width="4" height="4" rx="0.5" fill="#9BC1FD"/>
<rect x="211" y="65" width="4" height="4" rx="0.5" fill="#9BC1FD"/>
<rect x="211" y="71" width="4" height="4" rx="0.5" fill="#9BC1FD"/>
<rect x="211" y="77" width="4" height="4" rx="0.5" fill="#9BC1FD"/>
<rect x="217" y="77" width="4" height="4" rx="0.5" fill="#9BC1FD"/>
<rect x="223" y="77" width="4" height="4" rx="0.5" fill="#9BC1FD"/>
<rect x="229" y="77" width="4" height="4" rx="0.5" fill="#9BC1FD"/>
<rect x="229" y="71" width="4" height="4" rx="0.5" fill="#9BC1FD"/>
<rect x="229" y="65" width="4" height="4" rx="0.5" fill="#00EA33"/>
<rect x="223" y="65" width="4" height="4" rx="0.5" fill="#00EA33"/>
<rect x="223" y="59" width="4" height="4" rx="0.5" fill="#00EA33"/>
<rect x="223" y="53" width="4" height="4" rx="0.5" fill="#00EA33"/>
<rect x="223" y="47" width="4" height="4" rx="0.5" fill="#00EA33"/>
<rect x="229" y="47" width="4" height="4" rx="0.5" fill="#00EA33"/>
<rect x="235" y="47" width="4" height="4" rx="0.5" fill="#9BC1FD"/>
<rect x="241" y="47" width="4" height="4" rx="0.5" fill="#9BC1FD"/>
<rect x="241" y="41" width="4" height="4" rx="0.5" fill="#9BC1FD"/>
<rect x="241" y="35" width="4" height="4" rx="0.5" fill="#9BC1FD"/>
<rect x="67" y="17" width="4" height="4" rx="0.5" fill="#9BC1FD"/>
<rect x="67" y="11" width="4" height="4" rx="0.5" fill="#9BC1FD"/>
<rect x="85" y="12" width="4" height="4" rx="0.5" fill="#9BC1FD"/>
</svg>
