<svg width="264" height="336" viewBox="0 0 264 336" fill="none" xmlns="http://www.w3.org/2000/svg">
<rect x="259" y="247" width="4" height="4" rx="0.5" fill="#216BD6"/>
<rect x="259" y="241" width="4" height="4" rx="0.5" fill="#216BD6"/>
<rect x="259" y="235" width="4" height="4" rx="0.5" fill="#216BD6"/>
<rect x="259" y="193" width="4" height="4" rx="0.5" fill="#216BD6"/>
<rect x="253" y="193" width="4" height="4" rx="0.5" fill="#216BD6"/>
<rect x="253" y="200" width="4" height="4" rx="0.5" fill="#216BD6"/>
<rect x="253" y="206" width="4" height="4" rx="0.5" fill="#216BD6"/>
<rect x="255" y="212" width="4" height="4" rx="0.5" fill="#216BD6"/>
<rect x="247" y="193" width="4" height="4" rx="0.5" fill="#216BD6"/>
<rect x="241" y="193" width="4" height="4" rx="0.5" fill="#216BD6"/>
<rect x="235" y="193" width="4" height="4" rx="0.5" fill="#216BD6"/>
<rect x="229" y="193" width="4" height="4" rx="0.5" fill="#216BD6"/>
<rect x="226" y="187" width="4" height="4" rx="0.5" fill="#216BD6"/>
<rect x="217" y="187" width="4" height="4" rx="0.5" fill="#216BD6"/>
<rect x="211" y="187" width="4" height="4" rx="0.5" fill="#216BD6"/>
<rect x="205" y="187" width="4" height="4" rx="0.5" fill="#216BD6"/>
<rect x="199" y="187" width="4" height="4" rx="0.5" fill="#216BD6"/>
<rect x="223" y="193" width="4" height="4" rx="0.5" fill="#216BD6"/>
<rect x="217" y="193" width="4" height="4" rx="0.5" fill="#216BD6"/>
<rect x="211" y="193" width="4" height="4" rx="0.5" fill="#216BD6"/>
<rect x="205" y="193" width="4" height="4" rx="0.5" fill="#216BD6"/>
<rect x="205" y="199" width="4" height="4" rx="0.5" fill="#216BD6"/>
<rect x="199" y="193" width="4" height="4" rx="0.5" fill="#216BD6"/>
<rect width="6" height="6" transform="translate(234)" fill="white"/>
<rect x="235" y="1" width="4" height="4" rx="0.5" fill="#216BD6"/>
<rect width="6" height="6" transform="translate(240 6)" fill="white"/>
<rect x="241" y="7" width="4" height="4" rx="0.5" fill="#216BD6"/>
<rect width="6" height="6" transform="translate(240 12)" fill="white"/>
<rect x="241" y="13" width="4" height="4" rx="0.5" fill="#216BD6"/>
<rect width="6" height="6" transform="translate(234 36)" fill="white"/>
<rect x="235" y="37" width="4" height="4" rx="0.5" fill="#216BD6"/>
<rect width="6" height="6" transform="translate(234 48)" fill="white"/>
<rect x="235" y="49" width="4" height="4" rx="0.5" fill="#216BD6"/>
<rect width="6" height="6" transform="translate(232 57)" fill="white"/>
<rect x="233" y="58" width="4" height="4" rx="0.5" fill="#216BD6"/>
<rect width="6" height="6" transform="translate(225 65)" fill="white"/>
<rect x="226" y="66" width="4" height="4" rx="0.5" fill="#00EA33"/>
<rect width="6" height="6" transform="translate(228 78)" fill="white"/>
<rect x="229" y="79" width="4" height="4" rx="0.5" fill="#00EA33"/>
<rect width="6" height="6" transform="translate(222 72)" fill="white"/>
<rect x="223" y="73" width="4" height="4" rx="0.5" fill="#00EA33"/>
<rect width="6" height="6" transform="translate(222 78)" fill="white"/>
<rect x="223" y="79" width="4" height="4" rx="0.5" fill="#00EA33"/>
<rect width="6" height="6" transform="translate(216 78)" fill="white"/>
<rect x="217" y="79" width="4" height="4" rx="0.5" fill="#00EA33"/>
<rect width="6" height="6" transform="translate(222 84)" fill="white"/>
<rect x="223" y="85" width="4" height="4" rx="0.5" fill="#00EA33"/>
<rect width="6" height="6" transform="translate(216 84)" fill="white"/>
<rect x="217" y="85" width="4" height="4" rx="0.5" fill="#00EA33"/>
<rect width="6" height="6" transform="translate(210 84)" fill="white"/>
<rect x="211" y="85" width="4" height="4" rx="0.5" fill="#00EA33"/>
<rect width="6" height="6" transform="translate(210 90)" fill="white"/>
<rect x="211" y="91" width="4" height="4" rx="0.5" fill="#00EA33"/>
<rect width="6" height="6" transform="translate(204 90)" fill="white"/>
<rect x="205" y="91" width="4" height="4" rx="0.5" fill="#00EA33"/>
<rect width="6" height="6" transform="translate(204 96)" fill="white"/>
<rect x="205" y="97" width="4" height="4" rx="0.5" fill="#00EA33"/>
<rect width="6" height="6" transform="translate(198 96)" fill="white"/>
<rect x="199" y="97" width="4" height="4" rx="0.5" fill="#00EA33"/>
<rect width="6" height="6" transform="translate(204 102)" fill="white"/>
<rect x="205" y="103" width="4" height="4" rx="0.5" fill="#00EA33"/>
<rect width="6" height="6" transform="translate(204 108)" fill="white"/>
<rect x="205" y="109" width="4" height="4" rx="0.5" fill="#00EA33"/>
<rect width="6" height="6" transform="translate(198 102)" fill="white"/>
<rect x="199" y="103" width="4" height="4" rx="0.5" fill="#00EA33"/>
<rect width="6" height="6" transform="translate(198 108)" fill="white"/>
<rect x="199" y="109" width="4" height="4" rx="0.5" fill="#00EA33"/>
<rect width="6" height="6" transform="translate(198 114)" fill="white"/>
<rect x="199" y="115" width="4" height="4" rx="0.5" fill="#00EA33"/>
<rect x="193" y="103" width="4" height="4" rx="0.5" fill="#216BD6"/>
<rect x="193" y="97" width="4" height="4" rx="0.5" fill="#216BD6"/>
<rect x="193" y="109" width="4" height="4" rx="0.5" fill="#216BD6"/>
<rect x="193" y="115" width="4" height="4" rx="0.5" fill="#216BD6"/>
<rect x="187" y="103" width="4" height="4" rx="0.5" fill="#216BD6"/>
<rect x="187" y="109" width="4" height="4" rx="0.5" fill="#216BD6"/>
<rect x="187" y="115" width="4" height="4" rx="0.5" fill="#216BD6"/>
<rect x="181" y="103" width="4" height="4" rx="0.5" fill="#216BD6"/>
<rect x="181" y="109" width="4" height="4" rx="0.5" fill="#216BD6"/>
<rect x="181" y="115" width="4" height="4" rx="0.5" fill="#216BD6"/>
<rect x="175" y="103" width="4" height="4" rx="0.5" fill="#216BD6"/>
<rect x="175" y="109" width="4" height="4" rx="0.5" fill="#216BD6"/>
<rect x="175" y="115" width="4" height="4" rx="0.5" fill="#216BD6"/>
<rect x="169" y="103" width="4" height="4" rx="0.5" fill="#216BD6"/>
<rect x="163" y="97" width="4" height="4" rx="0.5" fill="#216BD6"/>
<rect x="163" y="115" width="4" height="4" rx="0.5" fill="#216BD6"/>
<rect x="157" y="109" width="4" height="4" rx="0.5" fill="#216BD6"/>
<rect x="151" y="103" width="4" height="4" rx="0.5" fill="#216BD6"/>
<rect x="151" y="97" width="4" height="4" rx="0.5" fill="#216BD6"/>
<rect x="151" y="109" width="4" height="4" rx="0.5" fill="#216BD6"/>
<rect x="145" y="103" width="4" height="4" rx="0.5" fill="#216BD6"/>
<rect x="145" y="109" width="4" height="4" rx="0.5" fill="#216BD6"/>
<rect x="139" y="103" width="4" height="4" rx="0.5" fill="#216BD6"/>
<rect x="139" y="109" width="4" height="4" rx="0.5" fill="#216BD6"/>
<rect x="133" y="103" width="4" height="4" rx="0.5" fill="#216BD6"/>
<rect x="133" y="109" width="4" height="4" rx="0.5" fill="#216BD6"/>
<rect x="127" y="103" width="4" height="4" rx="0.5" fill="#216BD6"/>
<rect x="127" y="109" width="4" height="4" rx="0.5" fill="#216BD6"/>
<rect x="127" y="97" width="4" height="4" rx="0.5" fill="#216BD6"/>
<rect x="133" y="97" width="4" height="4" rx="0.5" fill="#216BD6"/>
<rect x="139" y="97" width="4" height="4" rx="0.5" fill="#216BD6"/>
<rect x="121" y="103" width="4" height="4" rx="0.5" fill="#216BD6"/>
<rect x="121" y="109" width="4" height="4" rx="0.5" fill="#216BD6"/>
<rect x="121" y="97" width="4" height="4" rx="0.5" fill="#216BD6"/>
<rect x="115" y="103" width="4" height="4" rx="0.5" fill="#216BD6"/>
<rect x="115" y="109" width="4" height="4" rx="0.5" fill="#216BD6"/>
<rect x="109" y="103" width="4" height="4" rx="0.5" fill="#216BD6"/>
<rect x="109" y="109" width="4" height="4" rx="0.5" fill="#216BD6"/>
<rect x="103" y="103" width="4" height="4" rx="0.5" fill="#216BD6"/>
<rect x="103" y="109" width="4" height="4" rx="0.5" fill="#216BD6"/>
<rect x="97" y="91" width="4" height="4" rx="0.5" fill="#216BD6"/>
<rect x="91" y="103" width="4" height="4" rx="0.5" fill="#216BD6"/>
<rect x="91" y="109" width="4" height="4" rx="0.5" fill="#216BD6"/>
<rect x="91" y="97" width="4" height="4" rx="0.5" fill="#216BD6"/>
<rect x="91" y="91" width="4" height="4" rx="0.5" fill="#216BD6"/>
<rect x="85" y="103" width="4" height="4" rx="0.5" fill="#216BD6"/>
<rect x="85" y="109" width="4" height="4" rx="0.5" fill="#216BD6"/>
<rect x="85" y="115" width="4" height="4" rx="0.5" fill="#216BD6"/>
<rect x="85" y="97" width="4" height="4" rx="0.5" fill="#216BD6"/>
<rect x="85" y="91" width="4" height="4" rx="0.5" fill="#216BD6"/>
<rect x="85" y="85" width="4" height="4" rx="0.5" fill="#216BD6"/>
<rect x="79" y="91" width="4" height="4" rx="0.5" fill="#216BD6"/>
<rect x="79" y="103" width="4" height="4" rx="0.5" fill="#216BD6"/>
<rect x="79" y="109" width="4" height="4" rx="0.5" fill="#216BD6"/>
<rect x="79" y="97" width="4" height="4" rx="0.5" fill="#216BD6"/>
<rect x="73" y="103" width="4" height="4" rx="0.5" fill="#216BD6"/>
<rect x="73" y="109" width="4" height="4" rx="0.5" fill="#216BD6"/>
<rect x="73" y="97" width="4" height="4" rx="0.5" fill="#216BD6"/>
<rect x="67" y="103" width="4" height="4" rx="0.5" fill="#216BD6"/>
<rect x="67" y="109" width="4" height="4" rx="0.5" fill="#216BD6"/>
<rect x="61" y="103" width="4" height="4" rx="0.5" fill="#216BD6"/>
<rect x="61" y="109" width="4" height="4" rx="0.5" fill="#216BD6"/>
<rect x="61" y="115" width="4" height="4" rx="0.5" fill="#216BD6"/>
<rect x="55" y="115" width="4" height="4" rx="0.5" fill="#216BD6"/>
<rect x="49" y="115" width="4" height="4" rx="0.5" fill="#216BD6"/>
<rect x="49" y="121" width="4" height="4" rx="0.5" fill="#216BD6"/>
<rect x="55" y="121" width="4" height="4" rx="0.5" fill="#216BD6"/>
<rect x="49" y="127" width="4" height="4" rx="0.5" fill="#216BD6"/>
<rect x="49" y="133" width="4" height="4" rx="0.5" fill="#216BD6"/>
<rect x="49" y="139" width="4" height="4" rx="0.5" fill="#216BD6"/>
<rect x="49" y="145" width="4" height="4" rx="0.5" fill="#216BD6"/>
<rect x="49" y="151" width="4" height="4" rx="0.5" fill="#216BD6"/>
<rect x="49" y="157" width="4" height="4" rx="0.5" fill="#216BD6"/>
<rect x="43" y="157" width="4" height="4" rx="0.5" fill="#216BD6"/>
<rect x="37" y="157" width="4" height="4" rx="0.5" fill="#216BD6"/>
<rect x="49" y="163" width="4" height="4" rx="0.5" fill="#216BD6"/>
<rect x="43" y="163" width="4" height="4" rx="0.5" fill="#216BD6"/>
<rect x="49" y="169" width="4" height="4" rx="0.5" fill="#216BD6"/>
<rect x="43" y="169" width="4" height="4" rx="0.5" fill="#216BD6"/>
<rect x="31" y="169" width="4" height="4" rx="0.5" fill="#216BD6"/>
<rect x="49" y="175" width="4" height="4" rx="0.5" fill="#216BD6"/>
<rect x="43" y="175" width="4" height="4" rx="0.5" fill="#216BD6"/>
<rect x="31" y="175" width="4" height="4" rx="0.5" fill="#216BD6"/>
<rect x="25" y="175" width="4" height="4" rx="0.5" fill="#216BD6"/>
<rect x="49" y="181" width="4" height="4" rx="0.5" fill="#216BD6"/>
<rect x="31" y="181" width="4" height="4" rx="0.5" fill="#216BD6"/>
<rect x="49" y="187" width="4" height="4" rx="0.5" fill="#216BD6"/>
<rect x="37" y="187" width="4" height="4" rx="0.5" fill="#216BD6"/>
<rect x="31" y="187" width="4" height="4" rx="0.5" fill="#216BD6"/>
<rect x="37" y="193" width="4" height="4" rx="0.5" fill="#216BD6"/>
<rect x="31" y="193" width="4" height="4" rx="0.5" fill="#216BD6"/>
<rect x="31" y="199" width="4" height="4" rx="0.5" fill="#216BD6"/>
<rect x="25" y="199" width="4" height="4" rx="0.5" fill="#216BD6"/>
<rect x="49" y="205" width="4" height="4" rx="0.5" fill="#216BD6"/>
<rect x="43" y="205" width="4" height="4" rx="0.5" fill="#216BD6"/>
<rect x="31" y="205" width="4" height="4" rx="0.5" fill="#216BD6"/>
<rect x="25" y="205" width="4" height="4" rx="0.5" fill="#216BD6"/>
<rect x="19" y="205" width="4" height="4" rx="0.5" fill="#216BD6"/>
<rect x="49" y="211" width="4" height="4" rx="0.5" fill="#216BD6"/>
<rect x="31" y="211" width="4" height="4" rx="0.5" fill="#216BD6"/>
<rect x="25" y="211" width="4" height="4" rx="0.5" fill="#216BD6"/>
<rect x="49" y="217" width="4" height="4" rx="0.5" fill="#216BD6"/>
<rect x="37" y="217" width="4" height="4" rx="0.5" fill="#216BD6"/>
<rect x="31" y="217" width="4" height="4" rx="0.5" fill="#216BD6"/>
<rect x="25" y="217" width="4" height="4" rx="0.5" fill="#216BD6"/>
<rect x="19" y="217" width="4" height="4" rx="0.5" fill="#216BD6"/>
<rect x="49" y="223" width="4" height="4" rx="0.5" fill="#216BD6"/>
<rect x="31" y="223" width="4" height="4" rx="0.5" fill="#216BD6"/>
<rect x="25" y="223" width="4" height="4" rx="0.5" fill="#216BD6"/>
<rect x="19" y="223" width="4" height="4" rx="0.5" fill="#216BD6"/>
<rect x="13" y="223" width="4" height="4" rx="0.5" fill="#216BD6"/>
<rect x="7" y="223" width="4" height="4" rx="0.5" fill="#216BD6"/>
<rect x="49" y="229" width="4" height="4" rx="0.5" fill="#216BD6"/>
<rect x="43" y="229" width="4" height="4" rx="0.5" fill="#216BD6"/>
<rect x="31" y="229" width="4" height="4" rx="0.5" fill="#216BD6"/>
<rect x="25" y="229" width="4" height="4" rx="0.5" fill="#216BD6"/>
<rect x="19" y="229" width="4" height="4" rx="0.5" fill="#216BD6"/>
<rect x="13" y="229" width="4" height="4" rx="0.5" fill="#216BD6"/>
<rect x="49" y="235" width="4" height="4" rx="0.5" fill="#216BD6"/>
<rect x="43" y="235" width="4" height="4" rx="0.5" fill="#216BD6"/>
<rect x="25" y="235" width="4" height="4" rx="0.5" fill="#216BD6"/>
<rect x="19" y="235" width="4" height="4" rx="0.5" fill="#216BD6"/>
<rect x="13" y="235" width="4" height="4" rx="0.5" fill="#216BD6"/>
<rect x="49" y="241" width="4" height="4" rx="0.5" fill="#216BD6"/>
<rect x="43" y="241" width="4" height="4" rx="0.5" fill="#216BD6"/>
<rect x="37" y="241" width="4" height="4" rx="0.5" fill="#216BD6"/>
<rect x="25" y="241" width="4" height="4" rx="0.5" fill="#216BD6"/>
<rect x="19" y="241" width="4" height="4" rx="0.5" fill="#216BD6"/>
<rect x="13" y="241" width="4" height="4" rx="0.5" fill="#216BD6"/>
<rect x="49" y="247" width="4" height="4" rx="0.5" fill="#216BD6"/>
<rect x="43" y="247" width="4" height="4" rx="0.5" fill="#216BD6"/>
<rect x="37" y="247" width="4" height="4" rx="0.5" fill="#216BD6"/>
<rect x="25" y="247" width="4" height="4" rx="0.5" fill="#216BD6"/>
<rect x="19" y="247" width="4" height="4" rx="0.5" fill="#216BD6"/>
<rect x="13" y="247" width="4" height="4" rx="0.5" fill="#216BD6"/>
<rect x="1" y="97" width="4" height="4" rx="0.5" fill="#216BD6"/>
<rect x="7" y="97" width="4" height="4" rx="0.5" fill="#216BD6"/>
<rect x="13" y="97" width="4" height="4" rx="0.5" fill="#216BD6"/>
<rect x="1" y="91" width="4" height="4" rx="0.5" fill="#216BD6"/>
<rect x="7" y="91" width="4" height="4" rx="0.5" fill="#216BD6"/>
<rect x="1" y="85" width="4" height="4" rx="0.5" fill="#216BD6"/>
<rect x="3" y="53" width="4" height="4" rx="0.5" fill="#216BD6"/>
<rect x="63" y="90" width="4" height="4" rx="0.5" fill="#216BD6"/>
<rect x="61" y="97" width="4" height="4" rx="0.5" fill="#216BD6"/>
<rect x="49" y="253" width="4" height="4" rx="0.5" fill="#216BD6"/>
<rect x="43" y="253" width="4" height="4" rx="0.5" fill="#216BD6"/>
<rect x="37" y="253" width="4" height="4" rx="0.5" fill="#216BD6"/>
<rect x="31" y="253" width="4" height="4" rx="0.5" fill="#216BD6"/>
<rect x="49" y="259" width="4" height="4" rx="0.5" fill="#216BD6"/>
<rect x="43" y="259" width="4" height="4" rx="0.5" fill="#216BD6"/>
<rect x="37" y="259" width="4" height="4" rx="0.5" fill="#216BD6"/>
<rect x="49" y="265" width="4" height="4" rx="0.5" fill="#216BD6"/>
<rect x="43" y="265" width="4" height="4" rx="0.5" fill="#216BD6"/>
<rect x="37" y="265" width="4" height="4" rx="0.5" fill="#216BD6"/>
<rect x="49" y="271" width="4" height="4" rx="0.5" fill="#216BD6"/>
<rect x="43" y="271" width="4" height="4" rx="0.5" fill="#216BD6"/>
<rect x="37" y="271" width="4" height="4" rx="0.5" fill="#216BD6"/>
<rect x="49" y="277" width="4" height="4" rx="0.5" fill="#216BD6"/>
<rect x="43" y="277" width="4" height="4" rx="0.5" fill="#216BD6"/>
<rect x="37" y="277" width="4" height="4" rx="0.5" fill="#216BD6"/>
<rect x="49" y="283" width="4" height="4" rx="0.5" fill="#216BD6"/>
<rect x="43" y="283" width="4" height="4" rx="0.5" fill="#216BD6"/>
<rect x="37" y="283" width="4" height="4" rx="0.5" fill="#216BD6"/>
<rect x="49" y="289" width="4" height="4" rx="0.5" fill="#216BD6"/>
<rect x="43" y="289" width="4" height="4" rx="0.5" fill="#216BD6"/>
<rect x="37" y="289" width="4" height="4" rx="0.5" fill="#216BD6"/>
<rect x="49" y="295" width="4" height="4" rx="0.5" fill="#216BD6"/>
<rect x="43" y="295" width="4" height="4" rx="0.5" fill="#216BD6"/>
<rect x="37" y="295" width="4" height="4" rx="0.5" fill="#216BD6"/>
<rect x="49" y="301" width="4" height="4" rx="0.5" fill="#216BD6"/>
<rect x="43" y="301" width="4" height="4" rx="0.5" fill="#216BD6"/>
<rect x="37" y="301" width="4" height="4" rx="0.5" fill="#216BD6"/>
<rect x="31" y="301" width="4" height="4" rx="0.5" fill="#216BD6"/>
<rect x="49" y="307" width="4" height="4" rx="0.5" fill="#216BD6"/>
<rect x="43" y="307" width="4" height="4" rx="0.5" fill="#216BD6"/>
<rect x="37" y="307" width="4" height="4" rx="0.5" fill="#216BD6"/>
<rect x="31" y="307" width="4" height="4" rx="0.5" fill="#216BD6"/>
<rect x="49" y="313" width="4" height="4" rx="0.5" fill="#216BD6"/>
<rect x="43" y="313" width="4" height="4" rx="0.5" fill="#216BD6"/>
<rect x="37" y="313" width="4" height="4" rx="0.5" fill="#216BD6"/>
<rect x="31" y="313" width="4" height="4" rx="0.5" fill="#216BD6"/>
<rect x="49" y="319" width="4" height="4" rx="0.5" fill="#216BD6"/>
<rect x="55" y="319" width="4" height="4" rx="0.5" fill="#216BD6"/>
<rect x="61" y="319" width="4" height="4" rx="0.5" fill="#216BD6"/>
<rect x="67" y="331" width="4" height="4" rx="0.5" fill="#216BD6"/>
<rect x="61" y="313" width="4" height="4" rx="0.5" fill="#216BD6"/>
<rect x="55" y="313" width="4" height="4" rx="0.5" fill="#216BD6"/>
<rect x="55" y="307" width="4" height="4" rx="0.5" fill="#216BD6"/>
<rect x="61" y="295" width="4" height="4" rx="0.5" fill="#216BD6"/>
<rect x="61" y="289" width="4" height="4" rx="0.5" fill="#216BD6"/>
<rect x="61" y="283" width="4" height="4" rx="0.5" fill="#216BD6"/>
<rect x="61" y="277" width="4" height="4" rx="0.5" fill="#216BD6"/>
<rect x="61" y="271" width="4" height="4" rx="0.5" fill="#216BD6"/>
<rect x="61" y="265" width="4" height="4" rx="0.5" fill="#216BD6"/>
<rect x="61" y="259" width="4" height="4" rx="0.5" fill="#216BD6"/>
<rect x="61" y="253" width="4" height="4" rx="0.5" fill="#216BD6"/>
<rect x="61" y="247" width="4" height="4" rx="0.5" fill="#216BD6"/>
<rect x="61" y="241" width="4" height="4" rx="0.5" fill="#216BD6"/>
<rect x="55" y="295" width="4" height="4" rx="0.5" fill="#216BD6"/>
<rect x="55" y="289" width="4" height="4" rx="0.5" fill="#216BD6"/>
<rect x="55" y="283" width="4" height="4" rx="0.5" fill="#216BD6"/>
<rect x="55" y="277" width="4" height="4" rx="0.5" fill="#216BD6"/>
<rect x="55" y="271" width="4" height="4" rx="0.5" fill="#216BD6"/>
<rect x="55" y="265" width="4" height="4" rx="0.5" fill="#216BD6"/>
<rect x="55" y="259" width="4" height="4" rx="0.5" fill="#216BD6"/>
<rect x="55" y="253" width="4" height="4" rx="0.5" fill="#216BD6"/>
<rect x="55" y="247" width="4" height="4" rx="0.5" fill="#216BD6"/>
<rect x="55" y="241" width="4" height="4" rx="0.5" fill="#216BD6"/>
<rect x="55" y="235" width="4" height="4" rx="0.5" fill="#216BD6"/>
<rect x="55" y="229" width="4" height="4" rx="0.5" fill="#216BD6"/>
<rect x="55" y="223" width="4" height="4" rx="0.5" fill="#216BD6"/>
<rect x="61" y="223" width="4" height="4" rx="0.5" fill="#216BD6"/>
<rect x="67" y="223" width="4" height="4" rx="0.5" fill="#216BD6"/>
<rect x="85" y="223" width="4" height="4" rx="0.5" fill="#216BD6"/>
<rect x="85" y="241" width="4" height="4" rx="0.5" fill="#216BD6"/>
<rect x="85" y="247" width="4" height="4" rx="0.5" fill="#216BD6"/>
<rect x="91" y="223" width="4" height="4" rx="0.5" fill="#216BD6"/>
<rect x="91" y="235" width="4" height="4" rx="0.5" fill="#216BD6"/>
<rect x="91" y="241" width="4" height="4" rx="0.5" fill="#216BD6"/>
<rect x="91" y="247" width="4" height="4" rx="0.5" fill="#216BD6"/>
<rect x="91" y="253" width="4" height="4" rx="0.5" fill="#216BD6"/>
<rect x="91" y="259" width="4" height="4" rx="0.5" fill="#216BD6"/>
<rect x="97" y="223" width="4" height="4" rx="0.5" fill="#216BD6"/>
<rect x="97" y="235" width="4" height="4" rx="0.5" fill="#216BD6"/>
<rect x="97" y="241" width="4" height="4" rx="0.5" fill="#216BD6"/>
<rect x="97" y="247" width="4" height="4" rx="0.5" fill="#216BD6"/>
<rect x="97" y="253" width="4" height="4" rx="0.5" fill="#216BD6"/>
<rect x="97" y="259" width="4" height="4" rx="0.5" fill="#216BD6"/>
<rect x="103" y="223" width="4" height="4" rx="0.5" fill="#216BD6"/>
<rect x="103" y="235" width="4" height="4" rx="0.5" fill="#216BD6"/>
<rect x="103" y="241" width="4" height="4" rx="0.5" fill="#216BD6"/>
<rect x="103" y="247" width="4" height="4" rx="0.5" fill="#216BD6"/>
<rect x="103" y="253" width="4" height="4" rx="0.5" fill="#216BD6"/>
<rect x="103" y="259" width="4" height="4" rx="0.5" fill="#216BD6"/>
<rect x="103" y="265" width="4" height="4" rx="0.5" fill="#216BD6"/>
<rect x="103" y="271" width="4" height="4" rx="0.5" fill="#216BD6"/>
<rect x="103" y="277" width="4" height="4" rx="0.5" fill="#216BD6"/>
<rect x="103" y="283" width="4" height="4" rx="0.5" fill="#216BD6"/>
<rect x="103" y="289" width="4" height="4" rx="0.5" fill="#216BD6"/>
<rect x="109" y="241" width="4" height="4" rx="0.5" fill="#216BD6"/>
<rect x="109" y="247" width="4" height="4" rx="0.5" fill="#216BD6"/>
<rect x="109" y="253" width="4" height="4" rx="0.5" fill="#216BD6"/>
<rect x="109" y="259" width="4" height="4" rx="0.5" fill="#216BD6"/>
<rect x="109" y="265" width="4" height="4" rx="0.5" fill="#216BD6"/>
<rect x="109" y="271" width="4" height="4" rx="0.5" fill="#216BD6"/>
<rect x="109" y="277" width="4" height="4" rx="0.5" fill="#216BD6"/>
<rect x="109" y="283" width="4" height="4" rx="0.5" fill="#216BD6"/>
<rect x="109" y="289" width="4" height="4" rx="0.5" fill="#216BD6"/>
<rect x="115" y="223" width="4" height="4" rx="0.5" fill="#216BD6"/>
<rect x="115" y="229" width="4" height="4" rx="0.5" fill="#216BD6"/>
<rect x="115" y="241" width="4" height="4" rx="0.5" fill="#216BD6"/>
<rect x="115" y="247" width="4" height="4" rx="0.5" fill="#216BD6"/>
<rect x="115" y="253" width="4" height="4" rx="0.5" fill="#216BD6"/>
<rect x="115" y="259" width="4" height="4" rx="0.5" fill="#216BD6"/>
<rect x="115" y="265" width="4" height="4" rx="0.5" fill="#216BD6"/>
<rect x="115" y="271" width="4" height="4" rx="0.5" fill="#216BD6"/>
<rect x="115" y="277" width="4" height="4" rx="0.5" fill="#216BD6"/>
<rect x="115" y="283" width="4" height="4" rx="0.5" fill="#216BD6"/>
<rect x="115" y="289" width="4" height="4" rx="0.5" fill="#216BD6"/>
<rect x="115" y="307" width="4" height="4" rx="0.5" fill="#216BD6"/>
<rect x="115" y="313" width="4" height="4" rx="0.5" fill="#216BD6"/>
<rect x="121" y="223" width="4" height="4" rx="0.5" fill="#216BD6"/>
<rect x="121" y="229" width="4" height="4" rx="0.5" fill="#216BD6"/>
<rect x="121" y="241" width="4" height="4" rx="0.5" fill="#216BD6"/>
<rect x="121" y="247" width="4" height="4" rx="0.5" fill="#216BD6"/>
<rect x="121" y="253" width="4" height="4" rx="0.5" fill="#216BD6"/>
<rect x="121" y="259" width="4" height="4" rx="0.5" fill="#216BD6"/>
<rect x="121" y="265" width="4" height="4" rx="0.5" fill="#216BD6"/>
<rect x="121" y="271" width="4" height="4" rx="0.5" fill="#216BD6"/>
<rect x="121" y="277" width="4" height="4" rx="0.5" fill="#216BD6"/>
<rect x="121" y="283" width="4" height="4" rx="0.5" fill="#216BD6"/>
<rect x="121" y="289" width="4" height="4" rx="0.5" fill="#216BD6"/>
<rect x="121" y="307" width="4" height="4" rx="0.5" fill="#216BD6"/>
<rect x="121" y="313" width="4" height="4" rx="0.5" fill="#216BD6"/>
<rect x="127" y="229" width="4" height="4" rx="0.5" fill="#216BD6"/>
<rect x="127" y="247" width="4" height="4" rx="0.5" fill="#216BD6"/>
<rect x="127" y="253" width="4" height="4" rx="0.5" fill="#216BD6"/>
<rect x="127" y="259" width="4" height="4" rx="0.5" fill="#216BD6"/>
<rect x="127" y="265" width="4" height="4" rx="0.5" fill="#216BD6"/>
<rect x="127" y="271" width="4" height="4" rx="0.5" fill="#216BD6"/>
<rect x="127" y="277" width="4" height="4" rx="0.5" fill="#216BD6"/>
<rect x="133" y="235" width="4" height="4" rx="0.5" fill="#216BD6"/>
<rect x="133" y="259" width="4" height="4" rx="0.5" fill="#216BD6"/>
<rect x="133" y="265" width="4" height="4" rx="0.5" fill="#216BD6"/>
<rect x="133" y="271" width="4" height="4" rx="0.5" fill="#216BD6"/>
<rect x="133" y="277" width="4" height="4" rx="0.5" fill="#216BD6"/>
<rect x="133" y="295" width="4" height="4" rx="0.5" fill="#216BD6"/>
<rect x="133" y="301" width="4" height="4" rx="0.5" fill="#216BD6"/>
<rect x="133" y="307" width="4" height="4" rx="0.5" fill="#216BD6"/>
<rect x="133" y="313" width="4" height="4" rx="0.5" fill="#216BD6"/>
<rect x="133" y="319" width="4" height="4" rx="0.5" fill="#216BD6"/>
<rect x="139" y="265" width="4" height="4" rx="0.5" fill="#216BD6"/>
<rect x="139" y="271" width="4" height="4" rx="0.5" fill="#216BD6"/>
<rect x="139" y="277" width="4" height="4" rx="0.5" fill="#216BD6"/>
<rect x="139" y="289" width="4" height="4" rx="0.5" fill="#216BD6"/>
<rect x="151" y="289" width="4" height="4" rx="0.5" fill="#216BD6"/>
<rect x="139" y="295" width="4" height="4" rx="0.5" fill="#216BD6"/>
<rect x="151" y="295" width="4" height="4" rx="0.5" fill="#216BD6"/>
<rect x="139" y="301" width="4" height="4" rx="0.5" fill="#216BD6"/>
<rect x="151" y="301" width="4" height="4" rx="0.5" fill="#216BD6"/>
<rect x="139" y="307" width="4" height="4" rx="0.5" fill="#216BD6"/>
<rect x="151" y="307" width="4" height="4" rx="0.5" fill="#216BD6"/>
<rect x="139" y="313" width="4" height="4" rx="0.5" fill="#216BD6"/>
<rect x="151" y="313" width="4" height="4" rx="0.5" fill="#216BD6"/>
<rect x="139" y="319" width="4" height="4" rx="0.5" fill="#216BD6"/>
<rect x="151" y="319" width="4" height="4" rx="0.5" fill="#216BD6"/>
<rect x="145" y="271" width="4" height="4" rx="0.5" fill="#216BD6"/>
<rect x="145" y="277" width="4" height="4" rx="0.5" fill="#216BD6"/>
<rect x="157" y="283" width="4" height="4" rx="0.5" fill="#216BD6"/>
<rect x="157" y="271" width="4" height="4" rx="0.5" fill="#216BD6"/>
<rect x="157" y="265" width="4" height="4" rx="0.5" fill="#216BD6"/>
<rect x="157" y="251" width="4" height="4" rx="0.5" fill="#216BD6"/>
<rect x="172" y="310" width="4" height="4" rx="0.5" fill="#216BD6"/>
<rect x="179" y="319" width="4" height="4" rx="0.5" fill="#216BD6"/>
<rect x="187" y="331" width="4" height="4" rx="0.5" fill="#216BD6"/>
<rect x="145" y="289" width="4" height="4" rx="0.5" fill="#216BD6"/>
<rect x="157" y="289" width="4" height="4" rx="0.5" fill="#216BD6"/>
<rect x="145" y="295" width="4" height="4" rx="0.5" fill="#216BD6"/>
<rect x="157" y="295" width="4" height="4" rx="0.5" fill="#216BD6"/>
<rect x="145" y="301" width="4" height="4" rx="0.5" fill="#216BD6"/>
<rect x="157" y="301" width="4" height="4" rx="0.5" fill="#216BD6"/>
<rect x="145" y="307" width="4" height="4" rx="0.5" fill="#216BD6"/>
<rect x="157" y="307" width="4" height="4" rx="0.5" fill="#216BD6"/>
<rect x="145" y="313" width="4" height="4" rx="0.5" fill="#216BD6"/>
<rect x="157" y="313" width="4" height="4" rx="0.5" fill="#216BD6"/>
<rect x="145" y="319" width="4" height="4" rx="0.5" fill="#216BD6"/>
<rect x="157" y="319" width="4" height="4" rx="0.5" fill="#216BD6"/>
<rect x="61" y="217" width="4" height="4" rx="0.5" fill="#216BD6"/>
<rect x="67" y="217" width="4" height="4" rx="0.5" fill="#216BD6"/>
<rect x="73" y="217" width="4" height="4" rx="0.5" fill="#216BD6"/>
<rect x="79" y="217" width="4" height="4" rx="0.5" fill="#216BD6"/>
<rect x="85" y="217" width="4" height="4" rx="0.5" fill="#216BD6"/>
<rect x="91" y="217" width="4" height="4" rx="0.5" fill="#216BD6"/>
<rect x="97" y="217" width="4" height="4" rx="0.5" fill="#216BD6"/>
<rect x="115" y="217" width="4" height="4" rx="0.5" fill="#216BD6"/>
<rect x="61" y="211" width="4" height="4" rx="0.5" fill="#216BD6"/>
<rect x="67" y="211" width="4" height="4" rx="0.5" fill="#216BD6"/>
<rect x="73" y="211" width="4" height="4" rx="0.5" fill="#216BD6"/>
<rect x="79" y="211" width="4" height="4" rx="0.5" fill="#216BD6"/>
<rect x="85" y="211" width="4" height="4" rx="0.5" fill="#216BD6"/>
<rect x="109" y="211" width="4" height="4" rx="0.5" fill="#216BD6"/>
<rect x="115" y="211" width="4" height="4" rx="0.5" fill="#216BD6"/>
<rect x="61" y="205" width="4" height="4" rx="0.5" fill="#216BD6"/>
<rect x="67" y="205" width="4" height="4" rx="0.5" fill="#216BD6"/>
<rect x="97" y="205" width="4" height="4" rx="0.5" fill="#216BD6"/>
<rect x="103" y="205" width="4" height="4" rx="0.5" fill="#216BD6"/>
<rect x="109" y="205" width="4" height="4" rx="0.5" fill="#216BD6"/>
<rect x="61" y="199" width="4" height="4" rx="0.5" fill="#216BD6"/>
<rect x="79" y="199" width="4" height="4" rx="0.5" fill="#216BD6"/>
<rect x="85" y="199" width="4" height="4" rx="0.5" fill="#216BD6"/>
<rect x="91" y="199" width="4" height="4" rx="0.5" fill="#216BD6"/>
<rect x="97" y="199" width="4" height="4" rx="0.5" fill="#216BD6"/>
<rect x="73" y="193" width="4" height="4" rx="0.5" fill="#216BD6"/>
<rect x="79" y="193" width="4" height="4" rx="0.5" fill="#216BD6"/>
<rect x="85" y="193" width="4" height="4" rx="0.5" fill="#216BD6"/>
<rect x="91" y="193" width="4" height="4" rx="0.5" fill="#216BD6"/>
<rect x="97" y="193" width="4" height="4" rx="0.5" fill="#216BD6"/>
<rect x="103" y="193" width="4" height="4" rx="0.5" fill="#216BD6"/>
<rect x="157" y="193" width="4" height="4" rx="0.5" fill="#216BD6"/>
<rect x="175" y="193" width="4" height="4" rx="0.5" fill="#216BD6"/>
<rect x="61" y="187" width="4" height="4" rx="0.5" fill="#216BD6"/>
<rect x="67" y="187" width="4" height="4" rx="0.5" fill="#216BD6"/>
<rect x="73" y="187" width="4" height="4" rx="0.5" fill="#216BD6"/>
<rect x="79" y="187" width="4" height="4" rx="0.5" fill="#216BD6"/>
<rect x="85" y="187" width="4" height="4" rx="0.5" fill="#216BD6"/>
<rect x="91" y="187" width="4" height="4" rx="0.5" fill="#216BD6"/>
<rect x="97" y="187" width="4" height="4" rx="0.5" fill="#216BD6"/>
<rect x="103" y="187" width="4" height="4" rx="0.5" fill="#216BD6"/>
<rect x="109" y="187" width="4" height="4" rx="0.5" fill="#216BD6"/>
<rect x="157" y="187" width="4" height="4" rx="0.5" fill="#216BD6"/>
<rect x="163" y="187" width="4" height="4" rx="0.5" fill="#216BD6"/>
<rect x="169" y="187" width="4" height="4" rx="0.5" fill="#216BD6"/>
<rect x="175" y="187" width="4" height="4" rx="0.5" fill="#216BD6"/>
<rect x="61" y="181" width="4" height="4" rx="0.5" fill="#216BD6"/>
<rect x="67" y="181" width="4" height="4" rx="0.5" fill="#216BD6"/>
<rect x="73" y="181" width="4" height="4" rx="0.5" fill="#216BD6"/>
<rect x="79" y="181" width="4" height="4" rx="0.5" fill="#216BD6"/>
<rect x="85" y="181" width="4" height="4" rx="0.5" fill="#216BD6"/>
<rect x="91" y="181" width="4" height="4" rx="0.5" fill="#216BD6"/>
<rect x="97" y="181" width="4" height="4" rx="0.5" fill="#216BD6"/>
<rect x="103" y="181" width="4" height="4" rx="0.5" fill="#216BD6"/>
<rect x="109" y="181" width="4" height="4" rx="0.5" fill="#216BD6"/>
<rect x="115" y="181" width="4" height="4" rx="0.5" fill="#216BD6"/>
<rect x="121" y="181" width="4" height="4" rx="0.5" fill="#216BD6"/>
<rect x="127" y="181" width="4" height="4" rx="0.5" fill="#216BD6"/>
<rect x="145" y="181" width="4" height="4" rx="0.5" fill="#216BD6"/>
<rect x="151" y="181" width="4" height="4" rx="0.5" fill="#216BD6"/>
<rect x="157" y="181" width="4" height="4" rx="0.5" fill="#216BD6"/>
<rect x="163" y="181" width="4" height="4" rx="0.5" fill="#216BD6"/>
<rect x="169" y="181" width="4" height="4" rx="0.5" fill="#216BD6"/>
<rect x="61" y="175" width="4" height="4" rx="0.5" fill="#216BD6"/>
<rect x="67" y="175" width="4" height="4" rx="0.5" fill="#216BD6"/>
<rect x="73" y="175" width="4" height="4" rx="0.5" fill="#216BD6"/>
<rect x="79" y="175" width="4" height="4" rx="0.5" fill="#216BD6"/>
<rect x="85" y="175" width="4" height="4" rx="0.5" fill="#216BD6"/>
<rect x="91" y="175" width="4" height="4" rx="0.5" fill="#216BD6"/>
<rect x="97" y="175" width="4" height="4" rx="0.5" fill="#216BD6"/>
<rect x="103" y="175" width="4" height="4" rx="0.5" fill="#216BD6"/>
<rect x="109" y="175" width="4" height="4" rx="0.5" fill="#216BD6"/>
<rect x="115" y="175" width="4" height="4" rx="0.5" fill="#216BD6"/>
<rect x="121" y="175" width="4" height="4" rx="0.5" fill="#216BD6"/>
<rect x="127" y="175" width="4" height="4" rx="0.5" fill="#216BD6"/>
<rect x="133" y="175" width="4" height="4" rx="0.5" fill="#216BD6"/>
<rect x="145" y="175" width="4" height="4" rx="0.5" fill="#216BD6"/>
<rect x="151" y="175" width="4" height="4" rx="0.5" fill="#216BD6"/>
<rect x="157" y="175" width="4" height="4" rx="0.5" fill="#216BD6"/>
<rect x="163" y="175" width="4" height="4" rx="0.5" fill="#216BD6"/>
<rect x="169" y="175" width="4" height="4" rx="0.5" fill="#216BD6"/>
<rect x="61" y="169" width="4" height="4" rx="0.5" fill="#216BD6"/>
<rect x="67" y="169" width="4" height="4" rx="0.5" fill="#216BD6"/>
<rect x="73" y="169" width="4" height="4" rx="0.5" fill="#216BD6"/>
<rect x="79" y="169" width="4" height="4" rx="0.5" fill="#216BD6"/>
<rect x="85" y="169" width="4" height="4" rx="0.5" fill="#216BD6"/>
<rect x="91" y="169" width="4" height="4" rx="0.5" fill="#216BD6"/>
<rect x="97" y="169" width="4" height="4" rx="0.5" fill="#216BD6"/>
<rect x="103" y="169" width="4" height="4" rx="0.5" fill="#216BD6"/>
<rect x="109" y="169" width="4" height="4" rx="0.5" fill="#216BD6"/>
<rect x="115" y="169" width="4" height="4" rx="0.5" fill="#216BD6"/>
<rect x="121" y="169" width="4" height="4" rx="0.5" fill="#216BD6"/>
<rect x="127" y="169" width="4" height="4" rx="0.5" fill="#216BD6"/>
<rect x="133" y="169" width="4" height="4" rx="0.5" fill="#216BD6"/>
<rect x="139" y="169" width="4" height="4" rx="0.5" fill="#216BD6"/>
<rect x="151" y="169" width="4" height="4" rx="0.5" fill="#216BD6"/>
<rect x="61" y="163" width="4" height="4" rx="0.5" fill="#216BD6"/>
<rect x="67" y="163" width="4" height="4" rx="0.5" fill="#216BD6"/>
<rect x="73" y="163" width="4" height="4" rx="0.5" fill="#216BD6"/>
<rect x="79" y="163" width="4" height="4" rx="0.5" fill="#216BD6"/>
<rect x="85" y="163" width="4" height="4" rx="0.5" fill="#216BD6"/>
<rect x="91" y="163" width="4" height="4" rx="0.5" fill="#216BD6"/>
<rect x="97" y="163" width="4" height="4" rx="0.5" fill="#216BD6"/>
<rect x="103" y="163" width="4" height="4" rx="0.5" fill="#216BD6"/>
<rect x="109" y="163" width="4" height="4" rx="0.5" fill="#216BD6"/>
<rect x="115" y="163" width="4" height="4" rx="0.5" fill="#216BD6"/>
<rect x="121" y="163" width="4" height="4" rx="0.5" fill="#216BD6"/>
<rect x="127" y="163" width="4" height="4" rx="0.5" fill="#216BD6"/>
<rect x="133" y="163" width="4" height="4" rx="0.5" fill="#216BD6"/>
<rect x="139" y="163" width="4" height="4" rx="0.5" fill="#216BD6"/>
<rect x="145" y="163" width="4" height="4" rx="0.5" fill="#216BD6"/>
<rect x="163" y="163" width="4" height="4" rx="0.5" fill="#216BD6"/>
<rect x="163" y="157" width="4" height="4" rx="0.5" fill="#216BD6"/>
<rect x="163" y="151" width="4" height="4" rx="0.5" fill="#216BD6"/>
<rect x="157" y="151" width="4" height="4" rx="0.5" fill="#216BD6"/>
<rect x="151" y="151" width="4" height="4" rx="0.5" fill="#216BD6"/>
<rect x="145" y="151" width="4" height="4" rx="0.5" fill="#216BD6"/>
<rect x="130" y="139" width="4" height="4" rx="0.5" fill="#216BD6"/>
<rect x="121" y="139" width="4" height="4" rx="0.5" fill="#216BD6"/>
<rect x="115" y="145" width="4" height="4" rx="0.5" fill="#216BD6"/>
<rect x="109" y="145" width="4" height="4" rx="0.5" fill="#216BD6"/>
<rect x="105" y="134" width="4" height="4" rx="0.5" fill="#216BD6"/>
<rect x="157" y="157" width="4" height="4" rx="0.5" fill="#216BD6"/>
<rect x="151" y="157" width="4" height="4" rx="0.5" fill="#216BD6"/>
<rect x="145" y="157" width="4" height="4" rx="0.5" fill="#216BD6"/>
<rect x="139" y="157" width="4" height="4" rx="0.5" fill="#216BD6"/>
<rect x="133" y="157" width="4" height="4" rx="0.5" fill="#216BD6"/>
<rect x="127" y="157" width="4" height="4" rx="0.5" fill="#216BD6"/>
<rect x="55" y="217" width="4" height="4" rx="0.5" fill="#216BD6"/>
<rect x="55" y="211" width="4" height="4" rx="0.5" fill="#216BD6"/>
<rect x="55" y="205" width="4" height="4" rx="0.5" fill="#216BD6"/>
<rect x="55" y="199" width="4" height="4" rx="0.5" fill="#216BD6"/>
<rect x="49" y="199" width="4" height="4" rx="0.5" fill="#216BD6"/>
<rect x="55" y="187" width="4" height="4" rx="0.5" fill="#216BD6"/>
<rect x="55" y="181" width="4" height="4" rx="0.5" fill="#216BD6"/>
<rect x="55" y="175" width="4" height="4" rx="0.5" fill="#216BD6"/>
<rect x="55" y="169" width="4" height="4" rx="0.5" fill="#216BD6"/>
<rect x="55" y="163" width="4" height="4" rx="0.5" fill="#216BD6"/>
<rect x="55" y="157" width="4" height="4" rx="0.5" fill="#216BD6"/>
<rect x="61" y="307" width="4" height="4" rx="0.5" fill="#216BD6"/>
<rect x="55" y="301" width="4" height="4" rx="0.5" fill="#216BD6"/>
<rect x="43" y="319" width="4" height="4" rx="0.5" fill="#216BD6"/>
<rect x="43" y="325" width="4" height="4" rx="0.5" fill="#216BD6"/>
<rect x="37" y="325" width="4" height="4" rx="0.5" fill="#216BD6"/>
<rect x="37" y="319" width="4" height="4" rx="0.5" fill="#216BD6"/>
<rect x="31" y="319" width="4" height="4" rx="0.5" fill="#216BD6"/>
<rect x="43" y="145" width="4" height="4" rx="0.5" fill="#216BD6"/>
<rect x="43" y="139" width="4" height="4" rx="0.5" fill="#216BD6"/>
<rect x="39" y="130" width="4" height="4" rx="0.5" fill="#216BD6"/>
<rect x="55" y="103" width="4" height="4" rx="0.5" fill="#216BD6"/>
<rect x="55" y="109" width="4" height="4" rx="0.5" fill="#216BD6"/>
<rect width="6" height="6" transform="translate(210 96)" fill="white"/>
<rect x="211" y="97" width="4" height="4" rx="0.5" fill="#00EA33"/>
<rect width="6" height="6" transform="translate(198 90)" fill="white"/>
<rect x="199" y="91" width="4" height="4" rx="0.5" fill="#00EA33"/>
<rect width="6" height="6" transform="translate(216 90)" fill="white"/>
<rect x="217" y="91" width="4" height="4" rx="0.5" fill="#00EA33"/>
<rect width="6" height="6" transform="translate(204 84)" fill="white"/>
<rect x="205" y="85" width="4" height="4" rx="0.5" fill="#00EA33"/>
<rect x="31" y="241" width="4" height="4" rx="0.5" fill="#9BC1FD"/>
<rect x="31" y="235" width="4" height="4" rx="0.5" fill="#9BC1FD"/>
<rect x="37" y="235" width="4" height="4" rx="0.5" fill="#9BC1FD"/>
<rect x="37" y="229" width="4" height="4" rx="0.5" fill="#9BC1FD"/>
<rect x="37" y="223" width="4" height="4" rx="0.5" fill="#9BC1FD"/>
<rect x="43" y="223" width="4" height="4" rx="0.5" fill="#9BC1FD"/>
<rect x="43" y="217" width="4" height="4" rx="0.5" fill="#9BC1FD"/>
<rect x="43" y="211" width="4" height="4" rx="0.5" fill="#9BC1FD"/>
<rect x="37" y="211" width="4" height="4" rx="0.5" fill="#9BC1FD"/>
<rect x="37" y="205" width="4" height="4" rx="0.5" fill="#9BC1FD"/>
<rect x="37" y="199" width="4" height="4" rx="0.5" fill="#9BC1FD"/>
<rect x="43" y="199" width="4" height="4" rx="0.5" fill="#9BC1FD"/>
<rect x="43" y="193" width="4" height="4" rx="0.5" fill="#9BC1FD"/>
<rect x="49" y="193" width="4" height="4" rx="0.5" fill="#9BC1FD"/>
<rect x="55" y="193" width="4" height="4" rx="0.5" fill="#9BC1FD"/>
<rect x="61" y="193" width="4" height="4" rx="0.5" fill="#9BC1FD"/>
<rect x="67" y="193" width="4" height="4" rx="0.5" fill="#9BC1FD"/>
<rect x="67" y="199" width="4" height="4" rx="0.5" fill="#9BC1FD"/>
<rect x="73" y="199" width="4" height="4" rx="0.5" fill="#9BC1FD"/>
<rect x="73" y="205" width="4" height="4" rx="0.5" fill="#9BC1FD"/>
<rect x="79" y="205" width="4" height="4" rx="0.5" fill="#9BC1FD"/>
<rect x="85" y="205" width="4" height="4" rx="0.5" fill="#9BC1FD"/>
<rect x="91" y="205" width="4" height="4" rx="0.5" fill="#9BC1FD"/>
<rect x="91" y="211" width="4" height="4" rx="0.5" fill="#9BC1FD"/>
<rect x="97" y="211" width="4" height="4" rx="0.5" fill="#9BC1FD"/>
<rect x="103" y="211" width="4" height="4" rx="0.5" fill="#9BC1FD"/>
<rect x="103" y="217" width="4" height="4" rx="0.5" fill="#9BC1FD"/>
<rect x="109" y="217" width="4" height="4" rx="0.5" fill="#9BC1FD"/>
<rect x="109" y="223" width="4" height="4" rx="0.5" fill="#9BC1FD"/>
<rect x="109" y="229" width="4" height="4" rx="0.5" fill="#9BC1FD"/>
<rect x="109" y="235" width="4" height="4" rx="0.5" fill="#9BC1FD"/>
<rect x="115" y="235" width="4" height="4" rx="0.5" fill="#9BC1FD"/>
<rect x="121" y="235" width="4" height="4" rx="0.5" fill="#9BC1FD"/>
<rect x="127" y="235" width="4" height="4" rx="0.5" fill="#9BC1FD"/>
<rect x="127" y="241" width="4" height="4" rx="0.5" fill="#9BC1FD"/>
<rect x="103" y="229" width="4" height="4" rx="0.5" fill="#9BC1FD"/>
<rect x="97" y="229" width="4" height="4" rx="0.5" fill="#9BC1FD"/>
<rect x="91" y="229" width="4" height="4" rx="0.5" fill="#9BC1FD"/>
<rect x="43" y="187" width="4" height="4" rx="0.5" fill="#9BC1FD"/>
<rect x="43" y="181" width="4" height="4" rx="0.5" fill="#9BC1FD"/>
<rect x="37" y="181" width="4" height="4" rx="0.5" fill="#9BC1FD"/>
<rect x="37" y="175" width="4" height="4" rx="0.5" fill="#9BC1FD"/>
<rect x="37" y="169" width="4" height="4" rx="0.5" fill="#9BC1FD"/>
<rect x="37" y="163" width="4" height="4" rx="0.5" fill="#9BC1FD"/>
<rect x="97" y="109" width="4" height="4" rx="0.5" fill="#9BC1FD"/>
<rect x="97" y="103" width="4" height="4" rx="0.5" fill="#9BC1FD"/>
<rect x="97" y="97" width="4" height="4" rx="0.5" fill="#9BC1FD"/>
<rect x="103" y="97" width="4" height="4" rx="0.5" fill="#9BC1FD"/>
<rect x="109" y="97" width="4" height="4" rx="0.5" fill="#9BC1FD"/>
<rect x="115" y="97" width="4" height="4" rx="0.5" fill="#9BC1FD"/>
<rect x="157" y="97" width="4" height="4" rx="0.5" fill="#9BC1FD"/>
<rect x="157" y="103" width="4" height="4" rx="0.5" fill="#9BC1FD"/>
<rect x="163" y="103" width="4" height="4" rx="0.5" fill="#9BC1FD"/>
<rect x="163" y="109" width="4" height="4" rx="0.5" fill="#9BC1FD"/>
<rect x="169" y="109" width="4" height="4" rx="0.5" fill="#9BC1FD"/>
<rect x="169" y="115" width="4" height="4" rx="0.5" fill="#9BC1FD"/>
<rect x="31" y="247" width="4" height="4" rx="0.5" fill="#9BC1FD"/>
</svg>
